<?xml version="1.0" standalone="no"?>
<!DOCTYPE svg PUBLIC "-//W3C//DTD SVG 20010904//EN"
 "http://www.w3.org/TR/2001/REC-SVG-20010904/DTD/svg10.dtd">
<svg version="1.0" xmlns="http://www.w3.org/2000/svg"
 width="2000.000000pt" height="2000.000000pt" viewBox="0 0 2000.000000 2000.000000"
 preserveAspectRatio="xMidYMid meet">

<g transform="translate(0.000000,2000.000000) scale(0.100000,-0.100000)"
fill="#000000" stroke="none">
<path d="M9296 18856 c-61 -23 -89 -47 -118 -106 -19 -36 -28 -69 -28 -101 0
-26 -5 -60 -11 -76 -7 -15 -16 -71 -21 -123 -16 -179 -24 -245 -35 -270 -6
-14 -13 -83 -17 -154 -4 -71 -12 -139 -19 -150 -6 -12 -14 -64 -19 -116 -11
-136 -22 -213 -32 -229 -9 -13 -14 -55 -34 -241 -4 -36 -11 -71 -16 -79 -5 -8
-13 -51 -18 -95 -17 -154 -25 -201 -36 -229 -7 -16 -12 -50 -12 -78 0 -50 -5
-81 -36 -204 -9 -38 -21 -113 -26 -165 -4 -52 -16 -117 -25 -145 -9 -27 -20
-81 -25 -120 -4 -38 -12 -99 -16 -135 -4 -36 -11 -71 -16 -78 -9 -14 -18 -73
-36 -217 -6 -44 -14 -107 -19 -140 -5 -33 -12 -82 -16 -110 -3 -27 -14 -76
-23 -107 l-17 -57 -242 -3 c-227 -3 -243 -4 -270 -24 -16 -12 -39 -24 -51 -28
-83 -27 -219 -105 -274 -158 l-43 -41 -7 53 c-7 62 -44 118 -107 164 l-43 31
-1936 -1 c-1376 0 -1965 -4 -2032 -12 -52 -6 -133 -16 -180 -21 -47 -5 -98
-14 -115 -19 -16 -6 -57 -16 -90 -22 -33 -6 -73 -15 -90 -20 -70 -21 -179 -61
-189 -69 -6 -5 -38 -14 -71 -20 -33 -6 -71 -19 -85 -29 -14 -10 -65 -38 -115
-62 -49 -24 -97 -49 -105 -55 -8 -7 -29 -17 -47 -23 -18 -6 -56 -28 -85 -50
-29 -21 -67 -46 -84 -55 -17 -9 -45 -29 -62 -45 -17 -16 -43 -37 -58 -47 -29
-19 -135 -117 -193 -179 -49 -52 -152 -155 -190 -189 -18 -15 -48 -54 -68 -85
-20 -31 -53 -79 -73 -107 -71 -97 -205 -373 -253 -520 -53 -163 -67 -221 -67
-273 0 -20 -7 -59 -15 -86 -22 -72 -22 -575 0 -636 8 -23 15 -60 15 -81 0
-124 113 -415 230 -594 22 -33 49 -77 60 -97 11 -21 37 -54 58 -75 22 -21 55
-63 75 -93 40 -62 128 -149 204 -204 28 -20 69 -54 90 -75 22 -21 62 -53 89
-71 27 -18 76 -55 109 -80 33 -26 80 -57 105 -70 25 -12 52 -28 60 -35 8 -8
58 -36 110 -63 52 -27 115 -63 140 -79 25 -17 77 -44 115 -59 39 -15 75 -30
80 -34 31 -23 695 -360 709 -360 8 0 149 -71 271 -136 33 -18 98 -51 145 -74
47 -22 92 -45 100 -50 8 -5 51 -28 95 -50 155 -81 194 -106 246 -159 65 -68
119 -145 119 -169 0 -10 10 -36 22 -57 17 -33 21 -58 22 -135 1 -87 -2 -100
-31 -160 -17 -36 -47 -87 -67 -115 -20 -27 -36 -55 -36 -62 0 -7 -12 -19 -27
-27 -16 -8 -41 -26 -57 -41 -47 -43 -248 -122 -361 -141 -45 -7 -1158 -8
-1903 -2 l-298 3 -38 -25 c-23 -16 -66 -69 -116 -145 -43 -66 -85 -127 -93
-136 -27 -31 -94 -124 -160 -224 -37 -55 -76 -111 -87 -125 -12 -14 -29 -41
-40 -61 -10 -19 -33 -51 -51 -70 -18 -19 -56 -70 -86 -114 -29 -44 -62 -91
-73 -103 -19 -23 -70 -99 -114 -172 -12 -19 -27 -44 -34 -55 -34 -54 -46 -96
-50 -176 -7 -144 35 -238 125 -275 43 -18 863 -19 933 -2 32 9 404 14 1285 19
1186 6 1341 10 1405 37 14 5 58 18 99 27 41 9 91 25 112 36 21 10 43 19 49 19
51 0 463 204 529 261 15 13 51 40 79 59 29 19 52 38 52 42 0 4 13 14 29 23 35
18 278 260 296 295 7 14 32 42 55 64 22 21 47 50 54 65 8 14 43 69 78 122 95
140 151 255 207 424 28 83 57 170 65 195 8 25 20 72 26 105 6 33 18 83 28 110
20 60 29 161 38 400 7 196 -4 336 -35 445 -11 36 -25 90 -31 120 -15 63 -117
334 -153 407 -33 65 -216 335 -236 350 -10 6 -30 32 -46 57 -16 25 -32 46 -36
46 -3 0 -28 23 -55 51 -163 170 -214 220 -250 245 -23 16 -63 46 -90 67 -92
71 -284 208 -307 217 -12 6 -42 24 -67 40 -25 17 -60 37 -78 45 -18 9 -54 30
-80 49 -26 18 -80 48 -121 67 -40 19 -166 81 -280 138 -308 155 -405 203 -526
261 -157 74 -308 151 -325 165 -8 6 -45 26 -81 42 -57 27 -158 93 -239 158
-58 47 -128 127 -153 177 -43 85 -34 197 26 313 15 28 33 65 42 83 9 19 28 46
43 61 15 15 39 41 53 57 93 103 194 160 354 196 35 8 435 13 1375 17 l1326 6
-39 -73 c-21 -40 -43 -98 -50 -130 -14 -71 -13 -476 2 -657 6 -71 14 -197 18
-280 5 -82 13 -157 18 -165 6 -8 14 -80 18 -160 4 -80 12 -208 17 -285 5 -77
13 -219 17 -315 5 -96 13 -182 18 -190 10 -15 16 -124 33 -605 5 -135 13 -242
20 -258 17 -40 17 -694 0 -734 -6 -15 -15 -89 -20 -163 -10 -174 -22 -284 -36
-340 -6 -25 -20 -88 -32 -140 -58 -259 -168 -558 -251 -680 -61 -90 -146 -206
-170 -233 -16 -17 -32 -41 -35 -52 -4 -11 -64 -76 -134 -145 -146 -143 -154
-159 -149 -288 4 -71 8 -85 35 -124 19 -26 53 -54 84 -71 l53 -27 396 5 c218
3 752 7 1186 10 l791 5 12 -45 c7 -25 12 -74 12 -109 0 -36 5 -77 12 -93 11
-28 21 -116 36 -328 4 -60 12 -117 17 -125 10 -15 15 -65 32 -295 5 -60 13
-117 18 -125 10 -14 14 -59 33 -295 4 -60 13 -119 18 -130 6 -11 17 -81 24
-155 7 -74 16 -162 21 -195 26 -175 41 -300 48 -385 3 -52 11 -102 16 -110 10
-15 19 -96 33 -300 4 -63 12 -122 17 -130 6 -8 13 -53 17 -100 22 -249 29
-323 38 -405 5 -49 13 -139 17 -200 5 -60 13 -117 18 -125 6 -8 13 -55 17
-105 16 -205 25 -291 35 -315 12 -28 33 -202 33 -272 0 -26 5 -59 11 -75 14
-33 38 -198 45 -298 2 -38 9 -83 16 -100 11 -29 16 -75 35 -300 5 -55 13 -107
18 -115 10 -15 16 -76 33 -305 4 -60 12 -117 17 -125 11 -17 21 -109 33 -300
4 -69 13 -135 20 -147 7 -13 12 -62 12 -126 0 -129 17 -191 67 -240 79 -79
255 -91 354 -24 57 38 80 92 88 210 4 57 11 109 17 117 5 8 12 74 17 145 4 72
11 182 15 245 4 63 12 122 17 130 5 8 13 69 17 135 4 66 12 181 18 255 6 74
14 182 18 240 4 58 11 112 17 120 9 14 17 96 33 340 4 58 11 112 17 120 5 8
13 65 18 125 9 122 20 242 36 385 6 52 15 127 19 165 4 39 11 76 16 83 9 14
32 163 46 292 5 41 16 125 24 185 9 61 19 131 22 157 6 43 10 48 40 58 61 21
127 99 188 225 63 131 97 188 214 353 45 64 82 121 82 127 0 5 12 21 27 35 14
14 32 39 39 55 7 17 45 71 83 120 86 109 77 99 139 158 28 27 54 58 58 70 6
21 73 96 143 161 41 37 244 242 320 321 29 31 71 68 93 81 21 14 65 49 97 79
31 30 79 70 105 89 26 18 54 43 62 54 18 26 109 96 190 146 34 20 71 46 81 55
11 10 30 24 43 31 14 7 63 41 110 74 102 74 142 99 195 125 22 10 55 33 73 50
18 17 39 31 46 31 7 0 25 9 40 21 15 11 57 36 94 55 37 19 123 66 192 105 69
39 157 86 195 105 39 19 87 44 107 54 65 35 424 160 458 160 14 0 59 13 157
47 66 22 150 114 206 224 26 52 47 97 47 101 0 4 16 40 35 81 19 41 35 80 35
87 0 7 9 27 19 44 11 17 24 51 31 76 19 75 120 342 144 385 13 22 31 67 40
100 10 33 39 116 66 185 64 166 137 394 174 545 8 33 20 80 26 105 6 25 20 72
31 105 10 33 19 73 19 90 0 16 6 47 14 70 20 58 36 131 36 163 0 37 10 72 21
72 5 0 9 -6 9 -12 0 -17 31 -63 212 -322 43 -61 92 -136 108 -166 17 -30 44
-75 60 -100 16 -25 37 -58 46 -75 9 -16 36 -55 59 -85 23 -30 48 -66 54 -78 7
-13 40 -62 74 -109 33 -47 74 -112 91 -146 47 -92 59 -113 81 -139 11 -13 58
-79 104 -148 46 -69 92 -136 101 -150 79 -117 98 -145 115 -175 28 -48 148
-227 252 -374 89 -126 115 -167 152 -231 10 -19 32 -49 48 -67 15 -17 39 -50
53 -72 14 -23 52 -78 85 -122 71 -95 165 -228 202 -284 74 -113 238 -225 329
-225 23 0 54 -4 70 -9 84 -25 145 -41 199 -51 187 -34 658 -220 810 -320 22
-15 65 -43 96 -63 30 -20 59 -37 63 -37 6 0 180 -110 201 -128 13 -11 60 -43
115 -78 25 -16 58 -41 74 -56 17 -16 33 -28 38 -28 4 0 35 -25 70 -56 34 -31
74 -62 88 -69 14 -8 40 -30 59 -49 49 -52 124 -86 188 -86 147 0 220 102 211
292 -4 80 -8 96 -45 168 -23 43 -56 98 -73 122 -50 68 -149 212 -273 396 -68
102 -96 146 -106 168 -5 12 -43 67 -83 123 -75 104 -115 163 -158 236 -48 82
-111 181 -171 265 -33 47 -73 110 -90 140 -46 84 -67 117 -142 219 -39 52 -80
118 -93 145 -13 28 -44 80 -69 116 -64 92 -119 175 -169 250 -54 82 -164 247
-216 325 -22 33 -57 86 -78 117 -21 32 -50 72 -65 90 -35 44 -109 150 -149
216 -18 29 -73 114 -123 188 -49 74 -101 152 -115 174 -14 22 -62 94 -107 159
-46 66 -83 124 -83 129 0 5 -22 38 -49 73 -27 36 -61 87 -75 114 -38 70 -61
107 -136 213 -36 50 -77 111 -91 135 -14 23 -50 79 -79 124 -29 45 -53 84 -54
88 0 3 22 14 49 23 88 30 364 203 435 273 25 25 63 57 85 72 55 36 199 178
229 224 13 21 37 52 51 68 15 17 35 41 43 55 9 14 40 57 69 96 53 72 119 186
150 259 10 22 33 69 52 105 39 75 98 240 112 320 6 30 15 75 20 100 32 157 50
371 45 525 -5 152 -25 348 -45 445 -5 25 -14 70 -20 100 -5 30 -26 100 -46
155 -20 55 -42 120 -50 145 -22 65 -73 166 -121 236 -23 33 -49 76 -57 95 -8
19 -26 47 -41 62 -14 15 -32 40 -40 55 -8 15 -25 39 -39 52 -13 14 -28 35 -31
48 -4 12 -39 53 -78 90 -94 91 -243 239 -301 301 -26 28 -60 57 -76 65 -15 8
-43 29 -62 47 -19 17 -47 38 -64 46 -16 7 -50 27 -75 43 -25 17 -60 37 -79 46
-19 8 -57 32 -85 53 -47 34 -213 121 -233 121 -4 0 -21 7 -38 16 -60 32 -345
128 -430 144 -33 7 -73 17 -90 22 -30 10 -83 17 -300 39 -120 13 -236 13
-1705 2 -982 -8 -996 -8 -1040 -29 -54 -25 -98 -67 -116 -111 -19 -44 -18
-165 1 -210 10 -22 72 -93 155 -177 77 -76 140 -142 140 -145 0 -3 11 -18 23
-31 26 -28 67 -85 162 -225 34 -49 79 -112 100 -140 21 -27 45 -66 53 -85 8
-19 23 -46 33 -59 36 -46 110 -210 170 -380 10 -30 23 -59 29 -65 5 -7 23 -57
40 -112 17 -54 39 -128 50 -164 57 -185 75 -433 75 -1050 0 -484 -8 -683 -34
-875 -5 -38 -15 -119 -21 -179 -7 -60 -19 -124 -26 -142 -8 -18 -14 -51 -14
-74 0 -42 -13 -106 -36 -180 -8 -25 -14 -59 -14 -77 0 -30 -15 -95 -38 -168
-5 -16 -15 -55 -22 -85 -15 -72 -137 -454 -160 -505 -11 -22 -22 -53 -26 -70
-4 -16 -11 -36 -17 -43 -5 -6 -19 -38 -31 -70 -20 -53 -162 -335 -243 -482
-19 -36 -65 -109 -102 -163 -36 -54 -75 -112 -85 -128 -11 -17 -32 -45 -48
-63 -16 -17 -31 -41 -34 -53 -4 -13 -10 -23 -14 -23 -4 0 -20 -18 -36 -41 -15
-22 -43 -57 -61 -77 -18 -20 -36 -44 -39 -54 -3 -11 -25 -39 -49 -63 -24 -23
-54 -60 -68 -81 -23 -38 -124 -141 -165 -169 -11 -8 -36 -39 -56 -70 -31 -46
-479 -503 -692 -706 -81 -77 -150 -153 -188 -208 -18 -25 -55 -69 -82 -97 -92
-96 -169 -185 -183 -212 -7 -15 -27 -40 -43 -56 -16 -17 -36 -43 -45 -59 -8
-17 -47 -73 -87 -125 -101 -134 -213 -292 -234 -328 -9 -17 -28 -51 -41 -75
-38 -71 -123 -200 -129 -195 -2 3 1 19 7 37 6 18 11 72 11 120 0 48 5 100 12
116 6 15 15 78 20 138 15 190 45 472 58 546 6 30 10 84 10 120 0 35 7 86 15
113 8 27 15 88 15 135 0 111 9 161 27 161 17 0 187 57 298 100 44 17 101 38
127 46 26 8 50 18 52 23 3 5 94 52 202 106 108 54 225 116 260 139 34 23 95
61 135 86 180 112 266 175 334 246 22 23 55 49 73 59 41 20 315 294 357 356
16 24 46 60 66 79 41 40 116 131 145 175 10 17 29 42 42 56 27 29 64 88 88
139 9 19 29 51 44 70 44 56 278 529 304 616 14 43 31 99 39 124 9 25 32 99 52
165 21 66 42 134 47 150 5 17 14 57 19 90 5 33 13 83 17 110 4 28 12 57 17 65
11 18 23 134 33 325 5 91 14 155 25 184 25 64 25 497 0 562 -10 26 -20 96 -24
174 -13 194 -24 298 -34 315 -9 14 -14 41 -34 176 -5 34 -14 70 -20 82 -6 11
-11 34 -11 51 0 36 -22 124 -50 198 -11 30 -20 67 -20 83 0 16 -16 68 -35 114
-19 47 -35 90 -35 96 0 35 -177 404 -240 500 -16 25 -34 55 -40 68 -5 12 -27
46 -48 75 -22 28 -46 66 -54 82 -9 17 -27 41 -39 55 -13 14 -36 45 -52 68 -15
23 -31 42 -36 42 -5 0 -11 10 -15 23 -6 27 -351 375 -414 419 -24 17 -67 53
-96 82 -48 47 -105 90 -261 192 -85 56 -94 61 -152 88 -29 14 -77 41 -106 60
-30 20 -59 36 -64 36 -6 0 -22 9 -35 20 -14 10 -76 39 -139 64 -63 24 -152 61
-199 81 -99 43 -260 91 -385 116 -33 6 -77 17 -98 25 -20 8 -53 14 -71 14 -18
0 -48 3 -65 6 -25 5 -31 11 -31 33 0 14 -5 42 -11 61 -10 33 -17 84 -37 271
-5 41 -12 82 -17 90 -5 8 -13 46 -18 84 -21 181 -45 328 -56 359 -6 15 -11 54
-11 86 0 33 -7 77 -15 97 -18 46 -35 151 -35 215 0 26 -5 59 -12 75 -6 15 -15
57 -19 93 -4 36 -14 106 -23 155 -9 50 -21 122 -26 160 -22 180 -38 284 -46
296 -9 16 -19 78 -35 219 -33 308 -45 396 -55 411 -5 8 -12 48 -16 89 -20 213
-25 257 -33 270 -11 17 -21 100 -33 261 -9 132 -33 173 -127 221 -52 27 -193
35 -249 14z m152 -199 c6 -7 13 -53 16 -102 16 -245 18 -264 32 -276 10 -8 14
-33 14 -79 0 -38 7 -84 15 -105 10 -22 15 -60 14 -95 -1 -33 3 -65 8 -72 11
-12 17 -63 29 -230 3 -48 11 -81 20 -89 10 -8 14 -35 14 -95 0 -45 5 -86 10
-89 6 -3 10 -35 10 -69 0 -44 5 -67 15 -76 11 -9 15 -33 15 -91 0 -43 5 -81
10 -84 6 -3 10 -41 10 -84 0 -58 4 -82 15 -91 10 -9 15 -32 15 -75 0 -37 6
-75 15 -91 10 -18 15 -52 14 -92 -1 -36 3 -68 10 -75 6 -6 11 -39 11 -73 0
-35 5 -66 10 -69 6 -3 10 -36 10 -72 0 -48 5 -72 17 -85 16 -18 20 -43 39
-253 3 -33 10 -64 15 -69 5 -6 9 -37 9 -70 1 -34 7 -72 15 -86 8 -14 14 -51
15 -82 0 -31 5 -60 10 -63 6 -3 10 -37 10 -75 0 -38 5 -72 10 -75 6 -3 10 -41
10 -84 0 -58 4 -82 15 -91 11 -9 15 -32 15 -81 0 -37 5 -71 10 -74 6 -3 10
-26 10 -50 l0 -44 83 -5 c120 -7 205 -20 219 -34 7 -7 29 -12 49 -12 21 0 41
-4 44 -10 3 -5 26 -10 49 -10 27 0 48 -6 56 -15 7 -8 26 -15 43 -15 31 0 77
-13 132 -36 17 -7 49 -18 73 -25 23 -7 47 -18 53 -26 6 -7 21 -13 32 -13 25 0
97 -31 97 -42 0 -4 11 -8 23 -8 25 0 189 -78 195 -92 2 -4 10 -8 17 -8 7 0 26
-10 42 -23 15 -13 48 -32 73 -42 25 -11 50 -25 55 -31 6 -7 33 -24 62 -39 28
-14 57 -33 64 -41 7 -9 29 -24 48 -34 20 -10 45 -27 55 -39 11 -12 25 -21 32
-21 6 0 40 -29 75 -65 34 -35 72 -68 83 -71 27 -8 356 -334 356 -352 0 -7 18
-32 40 -54 22 -23 40 -46 40 -53 0 -6 16 -26 35 -45 19 -19 35 -39 35 -46 0
-7 11 -26 25 -42 14 -17 25 -34 25 -39 0 -6 9 -18 20 -28 11 -10 34 -47 50
-82 17 -35 37 -66 45 -69 8 -4 15 -14 15 -24 0 -11 4 -21 9 -25 11 -6 41 -63
41 -77 0 -4 10 -25 23 -46 13 -20 36 -68 51 -107 16 -38 34 -83 41 -100 12
-28 19 -47 46 -127 6 -18 17 -46 25 -61 8 -16 14 -42 14 -58 0 -17 7 -43 15
-58 8 -16 12 -31 8 -34 -3 -4 2 -18 11 -31 9 -14 16 -40 16 -58 0 -18 7 -42
15 -52 8 -11 15 -41 15 -67 0 -26 5 -51 10 -54 6 -3 10 -28 10 -54 0 -27 7
-62 15 -77 8 -16 15 -48 15 -71 0 -23 5 -45 10 -48 6 -3 10 -38 10 -76 0 -39
6 -80 12 -92 24 -42 49 -740 28 -761 -6 -6 -10 -64 -10 -140 0 -97 -4 -139
-15 -160 -9 -17 -15 -56 -15 -102 0 -40 -4 -76 -10 -79 -5 -3 -10 -25 -10 -49
0 -23 -7 -51 -15 -62 -8 -11 -14 -42 -15 -76 0 -31 -4 -60 -10 -63 -5 -3 -10
-21 -10 -39 0 -18 -7 -41 -15 -52 -8 -10 -15 -30 -15 -45 0 -14 -5 -30 -10
-35 -6 -6 -13 -23 -16 -39 -3 -15 -9 -36 -14 -46 -6 -10 -10 -26 -10 -36 0
-10 -11 -45 -24 -78 -13 -33 -30 -80 -37 -105 -18 -64 -245 -522 -269 -543
-11 -9 -20 -23 -20 -31 0 -7 -7 -19 -15 -26 -8 -7 -15 -19 -15 -27 0 -8 -11
-28 -25 -45 -14 -16 -25 -35 -25 -42 0 -7 -16 -26 -35 -43 -19 -17 -35 -38
-35 -45 0 -8 -14 -27 -31 -44 -17 -16 -37 -41 -45 -57 -8 -15 -35 -46 -60 -69
-25 -23 -54 -58 -64 -78 -23 -43 -287 -306 -316 -314 -12 -4 -47 -33 -78 -66
-32 -33 -62 -60 -67 -60 -5 0 -26 -15 -46 -33 -48 -42 -99 -77 -192 -132 -19
-11 -42 -28 -53 -37 -10 -10 -22 -18 -27 -18 -5 0 -22 -11 -38 -23 -15 -13
-64 -42 -108 -64 -44 -22 -116 -59 -159 -82 -44 -22 -85 -41 -92 -41 -7 0 -14
-4 -16 -9 -3 -9 -133 -71 -149 -71 -6 0 -34 -11 -62 -24 -29 -13 -71 -30 -95
-37 -23 -7 -47 -18 -53 -26 -6 -7 -24 -13 -40 -13 -15 0 -31 -4 -34 -10 -3 -5
-17 -10 -31 -10 -13 0 -32 -4 -42 -9 -33 -16 -87 -34 -122 -38 -58 -8 -70 -27
-70 -104 0 -37 -4 -71 -10 -74 -6 -4 -10 -55 -10 -119 0 -89 -3 -116 -15 -126
-12 -10 -15 -37 -15 -126 0 -64 -4 -115 -10 -119 -6 -3 -10 -51 -10 -109 0
-80 -3 -106 -15 -116 -11 -9 -15 -35 -15 -106 0 -51 -4 -96 -10 -99 -6 -3 -10
-52 -10 -110 0 -77 -4 -107 -14 -118 -10 -10 -16 -49 -20 -128 -14 -288 -18
-335 -27 -343 -5 -6 -9 -55 -9 -110 -1 -73 -5 -106 -15 -120 -11 -14 -15 -47
-15 -117 0 -55 -4 -101 -10 -104 -6 -3 -10 -49 -10 -101 0 -53 -5 -105 -11
-116 -6 -12 -11 -61 -10 -113 1 -77 -1 -95 -18 -116 -16 -20 -20 -47 -25 -149
-14 -278 -18 -325 -27 -336 -5 -7 -11 -53 -12 -102 -1 -57 -7 -96 -15 -104 -7
-7 -12 -42 -12 -93 0 -53 -5 -87 -14 -101 -8 -11 -17 -57 -20 -102 -3 -45 -9
-118 -12 -161 -3 -51 -11 -84 -20 -92 -10 -8 -14 -34 -14 -90 0 -43 -5 -81
-10 -84 -5 -3 -10 -41 -10 -83 -1 -52 -5 -83 -15 -96 -11 -14 -15 -46 -15
-107 0 -48 -4 -91 -10 -94 -6 -3 -10 -51 -10 -109 0 -66 -4 -106 -12 -114 -8
-8 -11 -40 -9 -96 2 -58 -2 -94 -13 -121 -11 -25 -16 -68 -16 -129 0 -60 -4
-96 -12 -104 -13 -13 -21 -109 -34 -381 -3 -76 -10 -121 -20 -135 -10 -15 -14
-53 -14 -143 0 -70 -4 -124 -10 -128 -6 -4 -10 -54 -10 -119 0 -69 -4 -116
-11 -123 -7 -7 -11 -52 -10 -122 1 -79 -3 -120 -14 -147 -10 -24 -15 -68 -15
-130 l0 -94 -38 0 c-35 0 -38 3 -50 40 -6 22 -12 91 -12 154 0 66 -4 117 -10
121 -6 3 -10 53 -10 113 -1 74 -5 115 -15 132 -9 16 -15 56 -15 110 0 58 -5
91 -15 104 -11 14 -15 47 -15 117 0 55 -4 101 -10 104 -5 3 -10 47 -10 96 0
67 -4 94 -15 105 -11 12 -15 39 -15 104 0 49 -4 92 -10 95 -6 3 -10 48 -10 99
0 69 -4 97 -14 105 -10 8 -17 42 -20 97 -3 46 -9 123 -12 171 -3 49 -11 94
-17 102 -12 14 -23 109 -33 276 -3 55 -11 96 -19 105 -8 9 -16 51 -19 108 -3
50 -9 134 -12 184 -3 51 -11 99 -17 107 -11 13 -18 81 -33 325 -3 53 -11 98
-20 110 -10 14 -14 50 -14 118 0 54 -4 100 -10 103 -6 3 -10 48 -10 99 0 69
-4 97 -14 105 -10 9 -16 43 -20 114 -15 275 -18 300 -32 314 -10 10 -14 40
-14 108 0 52 -4 97 -10 100 -6 3 -10 50 -10 104 0 75 -4 101 -15 111 -11 9
-15 35 -15 106 0 51 -4 96 -10 99 -5 3 -10 48 -10 98 -1 65 -5 98 -15 111 -11
14 -15 46 -15 112 0 51 -4 96 -10 99 -5 3 -10 48 -10 98 -1 61 -6 100 -15 117
-9 17 -14 56 -15 117 0 50 -4 95 -10 98 -5 3 -10 45 -10 93 0 60 -5 94 -14
108 -9 13 -17 58 -20 120 -16 278 -17 293 -32 305 -10 8 -14 36 -14 105 0 51
-4 96 -10 99 -6 3 -10 50 -10 106 l0 99 -922 -5 c-508 -2 -1078 -7 -1267 -10
-349 -6 -371 -4 -371 31 0 7 57 69 126 136 69 68 134 139 144 158 10 19 32 48
49 64 17 17 31 35 31 41 0 7 11 24 25 39 14 15 25 31 25 36 0 5 10 21 23 37
32 39 107 160 107 173 0 6 11 28 25 50 14 22 25 46 25 54 0 7 6 19 14 25 7 6
19 33 26 59 7 26 17 51 21 56 5 6 9 22 9 36 0 14 5 31 10 36 6 6 13 24 16 40
3 16 9 33 15 38 5 6 9 22 9 37 0 15 5 31 10 34 6 3 10 23 10 44 0 20 7 46 15
57 8 10 15 36 15 56 0 20 5 40 10 43 6 3 10 30 10 58 0 30 7 60 15 71 10 13
15 45 15 95 1 47 6 86 15 101 10 18 14 61 15 152 0 73 4 129 10 133 6 4 10
157 10 425 0 268 -4 421 -10 425 -6 4 -10 93 -10 234 0 184 -3 231 -15 247
-11 15 -14 55 -15 190 0 122 -4 173 -12 182 -13 13 -19 116 -34 517 -3 94 -9
155 -17 164 -11 13 -15 62 -35 446 -4 83 -13 163 -20 180 -9 19 -13 63 -11
120 2 55 -2 99 -9 112 -18 32 -16 322 2 346 8 10 12 27 9 37 -6 24 83 207 132
270 19 25 42 60 51 78 9 19 27 40 40 49 13 8 26 25 30 36 3 12 35 52 70 89 35
36 64 72 64 79 0 17 695 709 712 709 8 0 40 27 73 60 33 33 64 60 70 60 6 0
29 18 50 40 21 22 45 40 51 40 7 0 25 10 41 23 15 13 44 29 63 37 19 7 42 19
50 25 8 6 31 18 50 25 19 7 42 19 51 26 12 11 83 14 310 16 l294 3 5 89 c3 59
9 91 18 94 8 2 12 26 12 72 0 38 5 72 10 75 6 3 10 27 10 53 0 26 6 57 14 68
8 11 17 53 20 94 12 156 18 199 32 211 10 8 14 33 14 80 0 37 5 71 10 74 6 3
10 34 10 69 0 39 5 69 15 82 9 12 14 42 15 81 0 34 5 65 10 68 6 3 10 34 10
69 0 39 5 69 15 82 9 12 14 42 15 81 0 34 5 65 10 68 6 3 10 37 10 74 0 44 5
74 15 87 9 12 14 44 15 91 0 39 5 75 10 78 6 3 10 35 10 69 0 43 5 67 14 75 9
8 17 40 20 84 12 167 22 237 34 249 7 7 12 38 12 73 0 35 5 66 13 73 6 7 15
54 19 105 4 51 12 126 17 167 6 41 14 114 19 162 5 48 13 93 19 100 6 7 14 47
17 88 16 212 22 267 34 287 6 12 12 53 12 92 l0 71 39 0 c21 0 43 -6 49 -13z
m-2455 -3545 c10 -9 17 -10 22 -2 3 5 25 8 49 7 23 -2 73 0 110 6 58 8 69 7
86 -8 17 -16 21 -16 42 -1 32 23 190 23 212 0 27 -27 12 -84 -22 -84 -21 0
-874 -853 -895 -895 -8 -16 -51 -65 -95 -107 l-80 -78 -1320 0 c-870 0 -1323
-3 -1327 -10 -3 -5 -28 -10 -54 -10 -26 0 -56 -7 -67 -15 -10 -8 -28 -15 -39
-15 -11 -1 -36 -9 -55 -20 -19 -10 -55 -28 -80 -40 -25 -11 -61 -36 -80 -54
-19 -19 -45 -37 -57 -40 -25 -8 -83 -70 -83 -89 0 -8 -14 -26 -31 -43 -17 -16
-42 -53 -55 -81 -14 -29 -29 -55 -33 -57 -4 -3 -14 -23 -21 -46 -7 -22 -19
-45 -27 -51 -7 -6 -13 -24 -13 -40 0 -15 -4 -31 -10 -34 -5 -3 -10 -27 -10
-52 0 -24 -8 -58 -17 -74 -15 -26 -16 -33 -4 -62 8 -17 16 -52 18 -77 3 -25 9
-49 14 -54 5 -6 9 -20 9 -32 0 -12 14 -38 30 -59 17 -21 30 -41 30 -45 0 -4
16 -25 35 -46 19 -21 35 -43 35 -49 0 -15 53 -65 68 -65 7 0 28 -16 48 -35 19
-19 41 -35 48 -35 7 0 21 -9 32 -21 10 -11 33 -27 51 -34 18 -8 33 -18 33 -24
0 -5 12 -14 28 -20 15 -6 34 -15 42 -20 8 -5 53 -29 100 -52 172 -86 396 -197
440 -218 25 -12 52 -25 60 -30 8 -5 31 -17 50 -25 19 -9 42 -21 50 -26 8 -4
49 -25 90 -45 177 -88 255 -129 258 -137 2 -4 9 -8 16 -8 18 0 293 -137 301
-149 3 -6 26 -19 50 -30 25 -11 69 -36 98 -55 30 -20 58 -36 64 -36 5 0 20
-11 33 -25 13 -14 29 -25 35 -25 6 0 22 -11 35 -25 13 -14 30 -25 37 -25 7 0
33 -18 57 -40 24 -22 47 -40 53 -40 5 0 28 -20 52 -44 24 -25 53 -47 65 -50
25 -6 296 -278 296 -297 0 -7 21 -36 48 -64 52 -57 94 -116 148 -207 6 -10 18
-26 26 -35 23 -27 98 -184 98 -205 0 -10 11 -36 25 -58 14 -22 25 -50 25 -62
0 -13 7 -32 15 -42 8 -11 15 -30 15 -42 0 -13 5 -26 10 -29 6 -3 10 -30 10
-58 0 -30 7 -60 15 -71 8 -11 15 -41 15 -67 0 -26 5 -51 10 -54 13 -8 13 -372
0 -380 -6 -3 -10 -41 -10 -84 0 -56 -4 -82 -14 -90 -8 -7 -17 -38 -19 -69 -7
-82 -22 -151 -35 -164 -7 -7 -12 -24 -12 -39 0 -15 -4 -31 -10 -34 -6 -3 -10
-16 -10 -29 0 -12 -7 -31 -15 -42 -8 -10 -15 -29 -15 -41 0 -12 -11 -42 -25
-67 -14 -25 -25 -52 -25 -60 0 -19 -75 -174 -97 -200 -10 -12 -27 -38 -37 -59
-11 -20 -34 -55 -53 -76 -18 -22 -33 -44 -33 -50 0 -6 -22 -32 -50 -58 -27
-26 -50 -54 -50 -61 0 -19 -173 -196 -230 -235 -25 -17 -57 -44 -72 -59 -14
-15 -32 -28 -40 -28 -8 0 -29 -15 -47 -34 -19 -19 -55 -44 -81 -55 -26 -11
-52 -27 -59 -35 -6 -7 -34 -23 -61 -35 -27 -12 -52 -26 -55 -31 -3 -6 -15 -10
-25 -10 -10 0 -20 -3 -22 -7 -4 -11 -76 -43 -96 -43 -9 0 -26 -7 -36 -15 -11
-8 -28 -15 -38 -15 -10 0 -26 -4 -36 -9 -46 -25 -92 -41 -115 -41 -14 0 -29
-4 -32 -10 -3 -5 -26 -10 -49 -10 -25 0 -48 -6 -55 -14 -7 -9 -41 -17 -84 -21
-40 -4 -628 -10 -1307 -13 -948 -5 -1243 -10 -1270 -20 -26 -9 -138 -12 -422
-12 l-388 0 0 53 c0 44 4 58 25 77 14 13 25 29 25 35 0 6 11 22 25 35 14 13
25 29 25 36 0 7 11 26 25 42 14 17 25 34 25 39 0 5 16 24 35 43 19 19 35 39
35 46 0 6 13 28 30 49 16 21 30 42 30 47 0 5 16 22 35 39 19 17 35 37 35 45 0
8 13 28 30 46 17 17 30 36 30 43 0 6 16 26 35 45 19 19 35 40 35 48 0 8 9 26
21 40 63 83 79 106 79 117 0 6 11 22 25 35 14 13 25 29 25 35 0 6 14 24 31 41
17 16 38 43 45 59 8 17 30 50 49 75 19 25 40 57 46 73 6 15 19 32 29 37 10 6
103 10 207 10 147 0 194 -3 217 -15 42 -22 1701 -22 1730 0 11 8 41 15 67 15
26 0 51 5 54 10 3 6 19 10 35 10 16 0 32 5 35 10 3 6 15 10 26 10 10 0 50 16
88 35 37 19 73 35 79 35 6 0 30 18 54 40 23 22 48 40 54 40 16 0 114 106 114
123 0 8 9 22 21 33 11 10 36 51 55 91 19 40 39 75 45 78 5 4 9 25 9 49 0 23 5
47 11 53 6 6 9 51 5 124 -6 147 -15 205 -32 220 -8 6 -14 20 -14 30 0 11 -15
49 -34 85 -42 82 -209 256 -276 287 -25 11 -52 26 -61 34 -9 8 -149 80 -310
161 -276 139 -321 162 -359 184 -8 4 -26 13 -40 19 -31 13 -625 310 -660 330
-8 5 -31 16 -50 25 -133 63 -214 105 -220 114 -7 11 -183 100 -196 100 -7 0
-14 6 -17 14 -3 8 -32 27 -64 42 -32 15 -67 36 -78 46 -21 19 -96 75 -124 93
-9 6 -46 38 -84 73 -37 34 -72 62 -78 62 -16 0 -159 141 -159 157 0 8 -28 45
-62 83 -74 80 -108 124 -108 138 0 5 -7 15 -15 22 -8 7 -15 20 -15 30 0 9 -9
25 -20 35 -22 20 -93 155 -86 163 3 2 -3 21 -14 42 -33 65 -60 144 -60 177 0
17 -5 35 -10 38 -5 3 -10 37 -10 74 0 49 -4 72 -15 81 -22 18 -22 495 0 524
10 13 15 43 15 82 0 35 4 66 10 69 5 3 10 23 10 43 0 20 7 46 15 56 8 11 15
32 15 47 0 15 5 31 10 34 5 3 10 12 10 20 0 8 5 26 11 42 7 15 13 38 15 49 1
12 14 40 28 63 14 22 26 46 27 53 0 7 9 27 20 43 10 17 21 37 25 45 3 8 10 22
15 30 5 8 17 33 28 55 11 22 29 49 40 59 12 11 21 25 21 32 0 7 18 34 40 59
22 25 40 51 40 57 0 15 367 378 383 378 7 0 28 15 46 34 19 19 47 40 62 47 16
6 29 15 29 20 0 5 12 15 28 21 15 7 38 21 52 33 14 12 41 28 60 35 19 7 42 19
50 25 8 6 31 18 50 25 19 7 42 18 50 24 29 21 60 36 74 36 7 0 19 7 26 15 7 8
25 15 41 15 15 0 31 5 34 10 3 6 19 10 34 10 16 0 34 7 41 15 7 8 25 15 41 15
15 0 31 5 34 10 3 6 19 10 34 10 16 0 34 6 40 14 7 8 31 17 54 20 23 3 63 8
89 12 26 3 52 12 59 20 8 9 33 14 80 14 37 0 71 5 74 10 3 6 51 10 109 10 81
0 106 3 116 15 12 14 187 15 1605 13 1287 -2 1595 -5 1608 -16z m7947 3 c10
-12 38 -15 131 -15 68 0 120 -4 124 -10 3 -5 35 -10 69 -10 44 0 67 -5 76 -15
8 -9 29 -15 56 -15 23 0 46 -4 49 -10 3 -5 22 -10 42 -10 19 0 47 -6 61 -14
15 -8 47 -19 72 -26 25 -6 58 -18 73 -26 16 -8 37 -14 46 -14 21 0 78 -27 86
-41 4 -5 18 -9 33 -9 15 -1 43 -9 62 -20 19 -10 56 -29 83 -41 26 -13 47 -26
47 -31 0 -4 8 -8 18 -8 11 0 27 -9 37 -20 10 -12 39 -29 63 -40 24 -11 57 -31
74 -45 16 -14 35 -25 42 -25 6 0 19 -9 29 -20 9 -11 23 -20 30 -20 7 0 31 -18
52 -40 21 -22 45 -40 53 -40 18 0 392 -373 392 -391 0 -8 16 -30 35 -49 19
-19 35 -40 35 -47 0 -8 15 -29 33 -47 33 -34 67 -89 67 -109 0 -6 11 -22 24
-36 29 -31 106 -177 106 -202 0 -10 11 -39 25 -65 14 -26 25 -55 25 -65 0 -10
5 -21 10 -24 6 -3 10 -19 10 -34 0 -15 7 -36 15 -47 8 -10 15 -36 15 -56 0
-20 5 -40 10 -43 6 -3 10 -30 10 -58 0 -30 7 -60 15 -71 11 -14 15 -46 15
-106 0 -47 5 -91 10 -96 22 -22 -3 -501 -27 -526 -7 -6 -13 -36 -13 -64 0 -29
-4 -56 -10 -59 -5 -3 -10 -22 -10 -42 0 -19 -6 -47 -14 -61 -8 -15 -19 -47
-26 -72 -9 -37 -89 -214 -121 -270 -4 -8 -24 -47 -43 -85 -19 -39 -44 -79 -55
-89 -12 -11 -21 -26 -21 -33 0 -8 -16 -30 -35 -49 -19 -18 -35 -38 -35 -44 0
-6 -22 -35 -50 -64 -27 -29 -50 -59 -50 -66 0 -17 -140 -160 -158 -160 -8 0
-49 -34 -91 -75 -43 -41 -82 -75 -87 -75 -6 0 -21 -11 -34 -25 -13 -14 -31
-25 -41 -25 -9 0 -22 -7 -29 -15 -7 -8 -17 -15 -23 -15 -6 0 -20 -9 -31 -19
-28 -26 -154 -91 -176 -91 -9 0 -38 -11 -64 -25 -26 -14 -56 -25 -66 -25 -10
0 -22 -4 -25 -10 -3 -5 -21 -10 -39 -10 -19 0 -45 -6 -58 -13 -22 -11 -23 -15
-12 -42 7 -17 22 -39 33 -49 12 -11 21 -27 21 -36 0 -9 11 -27 25 -40 14 -13
25 -27 25 -32 0 -4 16 -31 35 -58 19 -27 35 -54 35 -59 0 -5 10 -22 23 -38 12
-15 28 -39 35 -53 14 -27 53 -86 74 -110 7 -8 19 -26 25 -40 7 -14 29 -45 48
-70 19 -25 40 -56 46 -70 6 -14 19 -34 29 -45 10 -11 30 -43 44 -71 14 -28 33
-57 41 -64 8 -7 15 -17 15 -22 0 -6 11 -23 25 -40 14 -16 25 -35 25 -42 0 -7
11 -23 25 -36 14 -13 25 -28 25 -33 0 -5 11 -22 25 -39 14 -16 25 -35 25 -42
0 -7 11 -23 25 -36 14 -13 25 -30 25 -38 0 -8 11 -23 25 -34 14 -11 25 -27 25
-37 0 -10 11 -28 25 -41 14 -13 25 -29 25 -35 0 -6 11 -22 25 -35 14 -13 25
-29 25 -36 0 -7 11 -26 25 -42 14 -17 25 -34 25 -39 0 -5 11 -20 25 -33 14
-13 25 -31 25 -40 0 -9 11 -27 25 -40 14 -13 25 -31 25 -40 0 -9 11 -26 25
-38 14 -12 25 -28 25 -35 0 -8 11 -24 25 -37 14 -13 25 -29 25 -35 0 -6 16
-29 35 -51 20 -21 41 -49 48 -61 7 -12 31 -49 55 -83 23 -34 42 -65 42 -69 0
-4 11 -18 25 -31 14 -13 25 -28 25 -33 0 -6 17 -35 38 -65 20 -30 45 -69 55
-86 11 -17 27 -40 38 -52 10 -11 19 -25 19 -30 0 -6 11 -21 25 -34 14 -13 25
-29 25 -36 0 -7 11 -26 25 -42 14 -17 25 -34 25 -39 0 -5 11 -20 25 -33 14
-13 25 -29 25 -36 0 -7 11 -26 25 -42 14 -17 25 -34 25 -39 0 -6 9 -18 19 -27
11 -10 28 -39 39 -65 12 -26 30 -55 41 -65 12 -11 21 -26 21 -34 0 -8 12 -28
26 -46 51 -63 84 -109 84 -119 0 -6 7 -19 17 -29 18 -20 35 -48 56 -93 8 -16
21 -36 30 -44 10 -7 17 -19 17 -25 0 -7 11 -23 25 -36 14 -13 25 -29 25 -36 0
-7 11 -26 25 -42 14 -17 25 -33 25 -37 0 -4 11 -20 25 -37 14 -16 25 -35 25
-42 0 -7 9 -21 21 -32 11 -10 31 -41 44 -69 12 -27 32 -59 44 -69 11 -11 21
-24 21 -31 0 -6 9 -21 20 -33 11 -12 25 -32 30 -44 6 -13 26 -43 45 -68 19
-25 42 -58 50 -75 9 -16 33 -55 55 -85 22 -30 40 -59 40 -64 0 -4 14 -24 30
-43 17 -18 30 -38 30 -44 0 -5 9 -20 21 -32 11 -12 25 -31 30 -42 5 -11 25
-40 44 -65 19 -25 42 -59 49 -75 8 -17 24 -39 35 -49 12 -11 21 -24 21 -30 0
-6 18 -34 40 -61 68 -86 77 -99 84 -122 4 -13 12 -23 17 -23 5 0 9 -25 9 -55
0 -33 -4 -55 -11 -55 -6 0 -36 25 -68 55 -32 30 -62 55 -67 55 -5 0 -36 27
-69 60 -33 33 -67 60 -77 60 -9 0 -22 9 -27 19 -10 18 -74 64 -143 103 -17 9
-40 26 -52 37 -12 12 -27 21 -32 21 -6 0 -19 7 -29 15 -54 41 -95 67 -142 90
-28 14 -57 32 -64 41 -7 8 -36 26 -65 40 -28 13 -57 31 -63 38 -6 7 -42 28
-79 46 -37 18 -107 53 -157 77 -49 25 -101 47 -115 49 -14 3 -29 9 -35 15 -5
5 -17 9 -26 9 -9 0 -22 6 -28 14 -6 8 -24 16 -39 19 -91 19 -92 19 -165 51
-21 9 -46 16 -55 16 -10 0 -27 6 -37 14 -10 7 -26 11 -36 9 -10 -3 -32 2 -50
11 -18 9 -51 16 -73 16 -23 0 -50 7 -60 15 -11 8 -37 15 -57 15 -21 0 -41 5
-44 10 -3 6 -29 10 -57 10 -28 0 -63 7 -81 17 -41 22 -127 103 -127 119 0 7
-16 28 -35 47 -19 19 -35 40 -35 47 0 7 -13 28 -30 47 -16 18 -30 39 -30 46 0
7 -16 27 -35 46 -19 19 -35 39 -35 46 0 7 -7 18 -16 26 -18 15 -84 112 -84
124 0 4 -18 27 -40 51 -22 24 -40 50 -40 59 0 8 -9 20 -20 27 -11 7 -20 18
-20 25 0 7 -13 28 -30 46 -16 19 -30 41 -30 49 0 8 -11 25 -25 38 -14 13 -25
29 -25 35 0 6 -11 22 -25 35 -14 13 -25 30 -25 38 0 8 -11 23 -25 34 -14 11
-25 27 -25 37 0 10 -11 28 -25 41 -14 13 -25 29 -25 36 0 7 -11 25 -25 40 -14
15 -25 32 -25 39 0 6 -11 22 -25 35 -14 13 -25 31 -25 40 0 9 -11 27 -25 40
-14 13 -25 29 -25 35 0 6 -11 22 -25 35 -14 13 -25 32 -25 42 0 9 -11 25 -25
34 -14 9 -25 24 -25 33 0 10 -11 28 -25 41 -14 13 -25 31 -25 40 0 9 -11 27
-25 40 -14 13 -25 29 -25 35 0 6 -11 22 -25 35 -14 13 -25 29 -25 36 0 7 -11
26 -25 42 -14 17 -25 34 -25 39 0 5 -11 20 -25 33 -14 13 -25 29 -25 35 0 18
-27 68 -50 92 -11 12 -20 29 -20 36 0 8 -7 21 -16 28 -16 13 -48 58 -89 124
-43 69 -73 111 -89 124 -9 7 -16 21 -16 30 0 10 -11 28 -25 41 -14 13 -25 28
-25 33 0 6 -6 18 -14 26 -7 9 -27 42 -45 74 -17 32 -38 65 -46 74 -8 8 -15 20
-15 27 0 7 -9 21 -21 32 -12 10 -30 36 -40 57 -11 20 -23 37 -27 37 -4 0 -13
12 -20 28 -11 26 -45 76 -77 115 -8 9 -15 21 -15 26 0 5 -10 22 -23 38 -27 33
-107 168 -107 180 0 5 -9 16 -20 26 -11 9 -20 23 -20 30 0 7 -13 26 -30 42
-16 16 -30 37 -30 47 0 9 -9 22 -20 28 -11 6 -22 21 -26 34 -3 13 -17 34 -30
47 -13 12 -24 28 -24 34 0 6 -5 16 -12 23 -15 15 -38 -28 -38 -73 0 -19 -7
-40 -15 -49 -9 -9 -15 -33 -15 -65 0 -27 -4 -53 -10 -56 -5 -3 -10 -33 -10
-66 0 -44 -4 -61 -15 -65 -10 -4 -15 -20 -15 -49 0 -24 -4 -47 -10 -50 -5 -3
-10 -30 -10 -59 0 -35 -5 -58 -15 -66 -9 -7 -15 -29 -15 -51 0 -21 -4 -41 -10
-44 -5 -3 -10 -30 -10 -59 0 -30 -6 -60 -15 -72 -8 -10 -15 -29 -15 -41 0 -12
-4 -25 -10 -28 -5 -3 -10 -23 -10 -43 0 -21 -6 -46 -13 -57 -7 -11 -19 -51
-26 -90 -7 -38 -19 -80 -27 -92 -8 -12 -14 -34 -14 -48 0 -32 -29 -123 -41
-131 -5 -3 -9 -18 -9 -34 0 -16 -4 -32 -10 -35 -5 -3 -10 -19 -10 -35 0 -16
-7 -35 -15 -44 -8 -8 -15 -23 -15 -34 0 -25 -26 -89 -40 -97 -5 -3 -10 -19
-10 -35 0 -16 -4 -32 -10 -35 -5 -3 -10 -19 -10 -34 0 -16 -7 -34 -15 -41 -8
-7 -15 -20 -15 -30 0 -26 -26 -85 -44 -100 -9 -7 -16 -23 -16 -37 0 -13 -9
-42 -19 -64 -11 -22 -23 -53 -26 -69 -4 -17 -11 -32 -16 -35 -5 -4 -9 -16 -9
-29 0 -12 -9 -41 -20 -64 -11 -22 -20 -47 -20 -54 0 -7 -11 -34 -25 -60 -14
-26 -25 -52 -25 -58 0 -6 -11 -36 -25 -66 -14 -30 -25 -58 -25 -63 0 -5 -7
-14 -15 -21 -8 -7 -15 -22 -15 -35 0 -24 -26 -83 -47 -103 -7 -7 -13 -19 -13
-25 0 -6 -14 -26 -32 -44 -25 -25 -40 -33 -68 -33 -20 0 -45 -7 -56 -15 -10
-8 -36 -15 -56 -15 -20 0 -40 -4 -43 -10 -3 -5 -16 -10 -29 -10 -12 0 -31 -7
-42 -15 -10 -8 -31 -15 -46 -15 -15 0 -30 -4 -33 -10 -3 -5 -19 -10 -35 -10
-16 0 -32 -5 -35 -10 -9 -14 -73 -40 -98 -40 -11 0 -28 -6 -36 -13 -9 -8 -32
-20 -51 -27 -19 -8 -37 -16 -40 -19 -3 -3 -23 -14 -45 -25 -22 -10 -49 -23
-60 -29 -11 -6 -85 -43 -164 -83 -79 -40 -147 -77 -150 -82 -7 -11 -124 -72
-138 -72 -5 0 -20 -11 -33 -25 -13 -14 -31 -25 -39 -25 -9 -1 -34 -14 -56 -30
-22 -17 -54 -36 -70 -44 -17 -8 -39 -24 -49 -35 -11 -12 -24 -21 -31 -21 -6 0
-22 -11 -35 -25 -13 -14 -31 -25 -40 -25 -9 0 -27 -11 -40 -25 -13 -14 -29
-25 -35 -25 -6 0 -22 -11 -35 -25 -13 -14 -29 -25 -36 -25 -7 0 -30 -15 -53
-32 -74 -60 -114 -88 -126 -88 -6 0 -29 -18 -50 -40 -21 -22 -45 -40 -51 -40
-7 0 -34 -23 -61 -51 -26 -28 -64 -59 -83 -69 -19 -10 -57 -42 -85 -70 -27
-29 -58 -55 -69 -59 -26 -10 -646 -631 -646 -648 0 -7 -27 -40 -60 -72 -33
-32 -60 -65 -60 -73 0 -8 -10 -23 -21 -34 -37 -33 -139 -163 -139 -177 0 -7
-16 -28 -35 -47 -19 -19 -35 -39 -35 -46 0 -7 -6 -19 -14 -26 -7 -8 -21 -27
-30 -43 -9 -17 -32 -50 -51 -75 -20 -25 -42 -59 -50 -77 -8 -17 -19 -34 -25
-38 -5 -3 -10 -15 -10 -25 0 -11 -11 -27 -25 -36 -14 -9 -25 -22 -25 -29 0 -7
-16 -42 -35 -79 -19 -37 -35 -73 -35 -81 0 -7 -7 -15 -15 -19 -8 -3 -15 -14
-15 -24 0 -10 -11 -29 -25 -42 -20 -19 -30 -22 -43 -14 -29 18 -36 56 -19 95
8 19 18 52 21 74 4 22 10 63 14 92 4 29 16 60 25 71 10 11 17 35 17 60 0 22 5
44 10 47 6 3 10 19 10 34 0 16 7 34 15 41 9 7 15 29 15 51 0 21 5 41 10 44 6
3 10 14 10 24 0 10 7 24 15 31 8 7 15 25 15 41 0 15 5 31 10 34 6 3 10 19 10
35 0 16 5 32 10 35 12 8 40 72 40 93 0 13 100 222 119 246 4 6 14 27 21 46 7
19 19 42 25 50 6 8 18 31 25 50 7 19 22 45 33 57 22 24 38 51 60 99 8 17 20
35 26 38 6 4 20 27 31 52 12 25 30 54 40 64 11 11 20 25 20 31 0 6 11 24 25
41 14 16 25 35 25 42 0 7 11 23 25 36 14 13 25 29 25 35 0 6 18 29 40 50 22
21 40 46 40 55 0 9 11 27 25 40 14 13 25 29 25 35 0 6 16 26 35 45 19 19 35
40 35 48 0 7 23 37 50 66 28 29 50 57 50 62 0 6 23 32 50 59 28 27 50 57 50
65 0 9 32 47 70 85 39 37 76 78 83 91 7 13 207 219 445 457 237 239 432 440
432 448 0 8 52 65 115 128 63 63 115 120 115 128 0 8 27 39 60 70 33 30 60 61
60 69 0 7 14 29 31 48 34 40 63 77 113 151 18 28 46 61 60 74 14 14 26 32 26
41 0 9 11 26 25 38 14 12 25 28 25 35 0 8 11 24 25 37 14 13 25 28 25 34 0 6
18 38 40 71 22 33 40 64 40 68 0 5 15 32 33 60 41 62 237 453 237 471 0 7 11
34 25 60 14 26 25 54 25 62 0 8 11 35 25 60 14 25 25 55 25 67 0 13 5 28 10
33 6 6 12 20 15 33 2 12 9 39 16 59 12 38 16 50 39 112 7 19 15 47 17 63 3 15
9 30 14 33 5 3 9 22 9 42 0 21 6 46 14 57 7 11 16 38 19 60 12 84 24 136 35
147 7 7 12 36 12 64 0 29 5 56 10 59 6 3 10 25 10 48 0 23 7 55 15 71 8 15 15
54 15 85 1 33 7 64 15 75 10 13 15 44 15 92 0 40 5 76 10 79 6 3 10 48 10 98
1 65 5 98 15 111 12 15 15 52 15 157 0 81 4 140 10 144 6 4 10 207 10 575 0
368 -4 571 -10 575 -6 4 -10 60 -10 133 -1 96 -4 132 -15 146 -10 13 -15 43
-15 82 0 35 -4 66 -10 69 -5 3 -10 30 -10 59 0 34 -5 58 -14 65 -8 6 -16 26
-19 44 -2 18 -9 46 -15 62 -6 17 -16 50 -23 75 -6 25 -22 67 -35 93 -13 27
-24 57 -24 66 0 21 -27 78 -41 86 -5 4 -9 16 -9 29 0 12 -27 76 -60 141 -33
66 -60 125 -60 131 0 6 -9 19 -20 29 -11 10 -31 41 -44 69 -14 28 -34 60 -45
70 -12 11 -21 25 -21 32 0 7 -11 26 -25 42 -14 17 -25 34 -25 39 0 5 -11 20
-25 33 -14 13 -25 29 -25 36 0 7 -16 29 -35 49 -19 21 -37 44 -40 54 -3 9 -28
40 -55 70 -28 29 -50 59 -50 65 0 6 -61 72 -135 146 -74 74 -135 142 -135 151
0 9 7 20 16 23 9 3 460 6 1002 6 852 1 990 3 1006 15 29 22 448 22 466 0z"/>
<path d="M8116 13915 c-13 -10 -43 -15 -87 -15 l-68 0 -3 -448 c-2 -345 -6
-453 -16 -464 -10 -12 -12 -114 -9 -474 2 -253 7 -472 12 -489 5 -17 11 -653
12 -1427 l3 -1398 719 0 c629 0 723 2 756 16 24 10 62 14 107 13 42 -1 73 2
80 9 7 7 38 12 69 12 31 0 70 7 85 15 16 8 41 15 56 15 14 0 39 6 55 14 15 8
55 20 88 27 33 8 79 24 103 36 24 13 51 23 62 23 10 0 38 11 61 25 24 14 50
25 58 25 19 0 111 43 111 52 0 4 38 26 84 47 46 22 86 47 89 55 4 9 13 16 20
16 8 0 31 14 52 30 21 17 43 30 49 30 6 0 33 23 59 50 27 28 55 50 61 50 18 0
250 237 254 258 2 10 25 37 52 61 28 24 50 50 50 57 0 7 12 28 28 46 30 36 42
55 71 109 11 19 27 41 35 48 9 8 16 22 16 32 0 10 4 20 9 23 12 8 116 220 132
271 7 22 19 47 26 56 7 8 13 25 13 37 0 12 4 30 9 40 12 24 32 83 38 112 3 14
12 34 19 45 8 11 14 41 14 67 0 26 5 50 10 53 6 3 10 30 10 60 0 30 5 57 10
60 6 3 10 39 10 78 0 44 6 83 15 101 20 38 22 585 3 604 -7 7 -16 50 -20 95
-13 147 -20 192 -29 201 -5 6 -9 29 -9 52 0 25 -6 47 -15 54 -8 7 -15 21 -15
31 0 10 -6 33 -14 51 -20 48 -36 102 -36 121 0 9 -4 17 -9 17 -5 0 -17 26 -27
58 -9 31 -23 64 -31 73 -7 8 -13 20 -13 25 0 14 -50 108 -88 168 -18 28 -32
55 -32 61 0 6 -11 22 -25 35 -14 13 -25 30 -25 37 0 7 -18 33 -40 57 -22 24
-40 47 -40 53 0 11 -255 259 -329 321 -29 23 -58 42 -65 42 -7 0 -23 11 -36
25 -13 14 -31 25 -40 25 -9 0 -25 9 -35 20 -15 16 -175 100 -191 100 -2 0 -22
11 -44 25 -22 14 -51 25 -64 25 -14 0 -28 5 -31 10 -3 6 -16 10 -29 10 -12 0
-31 7 -42 15 -10 8 -31 15 -46 15 -15 0 -30 5 -33 10 -3 6 -16 10 -29 10 -12
0 -31 7 -42 15 -10 8 -38 15 -60 15 -24 0 -47 6 -54 15 -8 10 -31 15 -66 15
-29 0 -56 5 -59 10 -3 6 -41 10 -83 10 -49 0 -88 6 -106 15 -42 22 -1511 22
-1540 0z m1466 -204 c13 -5 78 -14 146 -20 77 -8 138 -19 165 -31 23 -11 58
-20 77 -20 19 0 49 -7 65 -16 17 -9 86 -35 155 -58 161 -54 416 -186 481 -249
13 -13 40 -35 60 -50 58 -44 212 -198 243 -244 16 -24 32 -43 35 -43 4 0 12
-12 19 -27 6 -16 34 -62 61 -103 62 -95 102 -169 134 -251 66 -166 121 -318
128 -359 15 -74 29 -160 41 -250 14 -108 14 -505 0 -630 -13 -117 -46 -293
-62 -340 -100 -284 -188 -485 -258 -587 -10 -16 -44 -66 -75 -113 -30 -47 -72
-100 -92 -119 -19 -18 -43 -47 -52 -65 -19 -37 -128 -144 -198 -194 -27 -20
-58 -46 -68 -58 -24 -31 -188 -141 -256 -172 -31 -14 -69 -35 -86 -47 -16 -12
-64 -34 -105 -50 -41 -16 -116 -46 -167 -67 -51 -21 -100 -38 -110 -38 -10 0
-49 -10 -88 -21 -210 -61 -327 -70 -1017 -75 l-598 -4 -5 1362 c-7 1780 -7
2056 0 2531 l6 398 22 9 c29 11 1368 13 1399 1z"/>
<path d="M14480 12885 l0 -995 213 0 c170 1 216 4 231 15 13 10 43 15 82 15
35 0 66 5 69 10 3 6 24 10 45 10 21 0 42 5 45 10 3 6 23 10 44 10 20 0 46 7
57 15 10 8 28 15 39 15 11 0 52 16 90 36 39 20 113 58 166 85 53 27 102 56
109 64 7 8 18 15 25 15 12 0 122 114 161 166 29 40 120 232 129 271 3 18 11
35 16 38 12 8 12 328 0 341 -6 5 -12 22 -15 38 -3 16 -10 34 -16 40 -5 5 -10
19 -10 30 0 31 -57 139 -90 171 -16 16 -30 35 -30 43 0 18 -119 142 -137 142
-7 0 -32 17 -56 38 -23 21 -62 49 -87 61 -25 12 -63 36 -85 51 -22 16 -45 29
-51 30 -6 0 -32 11 -58 25 -26 14 -55 25 -66 25 -10 0 -38 11 -61 25 -24 14
-54 25 -66 25 -12 0 -25 5 -28 10 -3 6 -19 10 -34 10 -16 0 -34 7 -41 15 -7 9
-29 15 -51 15 -21 0 -41 5 -44 10 -3 6 -27 10 -53 10 -26 1 -58 7 -72 15 -14
8 -45 15 -70 15 -25 0 -54 7 -64 15 -15 11 -48 15 -128 15 l-108 0 0 -995z
m317 744 c132 -30 346 -96 378 -115 11 -7 39 -17 62 -23 23 -6 68 -27 100 -46
32 -18 79 -45 105 -59 26 -13 70 -43 98 -65 29 -23 56 -41 60 -41 5 0 18 -17
31 -37 12 -21 37 -57 56 -80 18 -23 51 -86 73 -141 36 -89 40 -108 40 -183 -1
-87 -19 -161 -53 -209 -9 -13 -17 -29 -17 -35 0 -13 -33 -76 -74 -139 -21 -33
-55 -64 -106 -98 -91 -60 -298 -162 -360 -178 -25 -6 -67 -17 -95 -25 -27 -8
-61 -17 -75 -20 -29 -8 -153 -23 -257 -31 l-73 -6 0 771 0 771 30 0 c16 0 51
-5 77 -11z"/>
</g>
</svg>
