<?xml version="1.0" standalone="no"?>
<!DOCTYPE svg PUBLIC "-//W3C//DTD SVG 20010904//EN"
 "http://www.w3.org/TR/2001/REC-SVG-20010904/DTD/svg10.dtd">
<svg xmlns="http://www.w3.org/2000/svg"
     width="2000" height="2000"
     viewBox="0 0 2000 2000"
     preserveAspectRatio="xMidYMid meet">

  <g transform="translate(0,2000) scale(0.1,-0.1)"
     fill="black" stroke="currentColor">

<path d="M9360 18591 c0 -44 -4 -83 -10 -86 -6 -3 -10 -48 -10 -100 0 -52 -4
-97 -10 -100 -5 -3 -10 -39 -10 -79 0 -48 -5 -79 -15 -92 -10 -13 -14 -44 -15
-96 0 -42 -4 -80 -10 -83 -5 -3 -10 -34 -10 -69 0 -39 -5 -69 -15 -82 -10 -13
-14 -45 -15 -104 0 -50 -5 -91 -11 -97 -7 -7 -11 -38 -10 -70 1 -38 -4 -66
-14 -79 -8 -11 -14 -42 -15 -75 0 -31 -7 -73 -15 -92 -8 -20 -15 -63 -15 -96
0 -33 -4 -63 -10 -66 -5 -3 -10 -34 -10 -69 0 -39 -5 -69 -15 -82 -9 -12 -14
-43 -15 -86 0 -37 -4 -70 -10 -73 -5 -3 -10 -39 -10 -78 -1 -47 -6 -79 -15
-91 -10 -13 -15 -43 -15 -82 0 -35 -4 -66 -10 -69 -5 -3 -10 -34 -10 -68 -1
-39 -6 -69 -15 -81 -10 -13 -15 -43 -15 -82 0 -35 -4 -66 -10 -69 -5 -3 -10
-32 -10 -64 0 -33 -7 -72 -15 -87 -8 -16 -15 -55 -15 -86 0 -31 -4 -60 -10
-63 -5 -3 -10 -28 -10 -54 0 -27 -7 -65 -15 -84 -8 -20 -15 -63 -15 -96 0 -33
-4 -63 -10 -66 -5 -3 -10 -30 -10 -58 -1 -29 -7 -63 -15 -77 -8 -14 -14 -51
-15 -82 0 -31 -4 -60 -10 -63 -5 -3 -10 -41 -10 -84 0 -46 -5 -82 -12 -89 -9
-9 -88 -12 -293 -12 l-281 0 -119 -61 c-65 -33 -129 -69 -143 -80 -14 -10 -29
-19 -34 -19 -5 0 -22 -16 -39 -35 -17 -19 -38 -35 -46 -35 -8 0 -43 -27 -77
-60 -35 -33 -67 -60 -72 -60 -13 0 -714 -703 -714 -715 0 -6 -29 -41 -65 -77
-36 -37 -65 -73 -65 -79 0 -6 -17 -31 -37 -55 -54 -61 -83 -101 -83 -112 0 -6
-10 -23 -22 -39 -27 -34 -46 -63 -54 -83 -15 -39 -40 -85 -46 -88 -5 -2 -8
-23 -8 -46 0 -23 -5 -47 -10 -52 -17 -17 3 -581 21 -599 5 -5 9 -69 9 -142 0
-96 4 -144 15 -170 11 -25 15 -72 15 -157 0 -84 4 -126 13 -134 12 -13 22
-162 33 -504 4 -129 8 -169 19 -178 12 -10 15 -47 15 -189 0 -100 4 -181 10
-187 17 -17 38 -1310 20 -1328 -6 -6 -10 -66 -10 -142 0 -78 -4 -135 -10 -139
-5 -3 -10 -46 -10 -94 0 -67 -4 -92 -15 -101 -10 -8 -15 -31 -15 -66 0 -29 -4
-56 -10 -59 -5 -3 -10 -23 -10 -44 0 -20 -7 -46 -15 -57 -8 -10 -15 -30 -15
-44 -1 -26 -32 -126 -44 -137 -3 -3 -6 -19 -6 -34 0 -15 -4 -31 -10 -34 -5 -3
-10 -19 -10 -35 0 -16 -7 -35 -15 -44 -8 -8 -15 -25 -15 -38 -1 -13 -9 -37
-18 -55 -55 -104 -102 -200 -102 -209 0 -6 -11 -21 -25 -34 -14 -13 -25 -31
-25 -41 0 -10 -6 -22 -14 -26 -12 -7 -50 -61 -86 -121 -8 -13 -30 -41 -47 -61
-18 -20 -33 -41 -33 -46 0 -6 -61 -71 -135 -145 -135 -135 -157 -169 -118
-184 9 -4 158 -6 332 -6 248 1 323 5 349 16 29 12 181 14 943 14 l908 0 5
-102 c9 -184 21 -293 34 -315 7 -12 12 -57 12 -105 0 -46 4 -88 9 -94 5 -5 11
-55 13 -111 2 -62 8 -107 16 -115 8 -8 12 -44 12 -98 0 -60 4 -92 15 -106 10
-13 14 -47 15 -116 0 -53 4 -100 10 -103 6 -3 10 -48 10 -100 0 -52 4 -97 10
-100 6 -3 10 -44 10 -91 0 -53 6 -98 15 -121 9 -21 15 -67 15 -115 0 -44 5
-89 11 -101 7 -11 11 -55 10 -96 -1 -51 4 -85 14 -105 10 -19 15 -57 15 -115
1 -56 6 -95 15 -111 9 -16 14 -55 15 -112 0 -48 5 -90 10 -93 6 -3 10 -46 10
-94 0 -61 4 -93 15 -107 10 -14 14 -47 15 -121 0 -57 4 -105 10 -108 6 -3 10
-43 10 -88 0 -53 5 -92 15 -111 10 -19 15 -59 15 -127 0 -54 4 -101 10 -104 6
-3 10 -43 10 -88 1 -52 6 -91 15 -107 10 -17 14 -57 15 -122 0 -53 4 -100 10
-103 6 -3 10 -45 10 -93 1 -57 6 -96 15 -112 9 -16 14 -55 15 -112 0 -48 5
-90 10 -93 6 -3 10 -43 10 -88 1 -52 6 -91 15 -107 9 -15 14 -54 15 -97 0 -39
5 -75 10 -78 6 -3 10 -43 10 -88 1 -52 6 -91 15 -107 9 -16 14 -54 15 -102 0
-42 5 -80 10 -83 6 -3 10 -45 10 -93 1 -61 5 -93 15 -106 11 -14 15 -46 15
-107 0 -48 5 -91 10 -94 6 -3 10 -43 10 -88 0 -53 5 -92 15 -111 10 -19 15
-58 15 -123 0 -71 4 -98 15 -109 11 -12 15 -39 15 -104 0 -49 5 -92 10 -95 6
-4 10 -54 10 -119 0 -83 4 -117 15 -132 11 -14 14 -49 15 -140 0 -144 10 -174
58 -174 l32 0 0 104 c0 59 4 108 10 111 6 4 10 60 10 133 1 96 4 132 15 146
11 15 15 49 15 132 0 65 4 115 10 119 6 4 10 60 10 134 0 100 3 131 14 141 11
8 16 44 20 128 3 64 8 171 12 237 3 69 10 125 17 134 7 8 15 62 19 120 4 58
11 156 15 217 5 61 13 117 20 125 6 8 14 59 17 114 14 256 18 291 31 305 8 9
16 50 19 98 3 45 9 118 12 161 3 51 11 84 20 92 10 8 14 34 14 90 0 43 5 81
10 84 5 3 10 43 10 89 0 52 5 87 13 94 12 13 23 112 33 294 4 67 10 100 20
109 10 8 14 37 14 115 0 58 4 106 10 109 6 4 10 55 10 119 0 87 3 116 14 125
11 9 16 44 20 119 15 286 18 316 32 336 10 14 14 50 14 118 0 54 4 100 10 103
6 3 10 51 10 108 0 73 4 108 14 123 14 20 17 49 32 351 4 79 9 115 20 123 11
10 14 39 14 121 0 61 4 110 10 114 6 3 10 46 10 94 0 56 4 91 13 99 12 13 22
122 33 351 4 80 10 118 20 128 10 11 14 43 14 128 0 65 4 116 10 120 6 3 10
37 10 74 0 75 9 91 55 91 16 1 41 7 55 15 14 8 37 14 52 15 15 0 30 5 33 10 3
6 16 10 29 10 12 0 31 7 42 15 10 8 31 15 45 15 15 0 32 6 38 13 6 8 30 19 53
26 24 7 67 24 96 37 29 13 58 24 64 24 7 0 107 48 223 106 235 118 239 120
278 152 16 12 34 22 41 22 7 0 23 11 36 25 13 14 29 25 36 25 7 0 25 10 41 23
15 12 35 27 44 32 73 45 129 86 129 95 0 5 11 12 23 16 13 3 53 34 88 70 35
35 70 64 78 64 16 0 301 286 301 302 0 5 29 40 65 77 36 37 65 72 65 78 0 6
18 29 40 52 22 22 40 47 40 54 0 7 16 28 35 47 19 19 35 38 35 44 0 5 10 23
23 40 13 17 33 52 44 77 12 25 28 51 37 58 20 17 246 471 246 496 0 11 7 29
15 39 8 11 15 28 15 38 0 10 4 26 9 36 22 43 41 94 41 109 0 18 16 71 35 118
21 51 35 100 35 126 0 14 7 34 15 45 8 11 15 41 15 71 0 28 5 55 10 58 6 3 10
30 10 59 0 35 5 58 15 66 11 9 15 33 15 91 0 43 5 81 10 84 6 4 10 63 10 143
1 105 4 142 15 156 22 29 21 452 0 480 -11 15 -15 50 -15 142 0 71 -4 125 -10
129 -5 3 -10 44 -10 89 0 60 -4 87 -14 95 -8 7 -17 35 -20 64 -11 108 -22 173
-34 194 -7 12 -12 40 -12 62 0 22 -4 43 -10 46 -5 3 -10 26 -10 49 0 27 -6 48
-15 56 -8 7 -15 25 -15 41 0 15 -4 31 -10 34 -5 3 -10 22 -10 42 0 19 -6 47
-14 61 -8 15 -20 46 -27 70 -7 23 -18 47 -26 53 -7 6 -13 22 -13 35 0 14 -4
32 -9 42 -5 9 -17 37 -27 62 -27 70 -146 310 -157 317 -5 3 -16 20 -24 37 -22
49 -39 75 -60 99 -12 12 -24 32 -27 43 -4 12 -15 29 -26 39 -11 10 -20 23 -20
30 0 6 -16 26 -35 45 -19 19 -35 41 -35 50 0 9 -18 34 -40 55 -22 21 -40 44
-40 50 0 13 -334 348 -353 354 -7 2 -44 35 -83 72 -40 38 -77 69 -84 69 -7 0
-28 12 -46 28 -85 69 -100 80 -121 86 -13 4 -23 12 -23 17 0 5 -6 9 -14 9 -8
0 -27 10 -43 23 -37 29 -70 47 -86 47 -7 0 -24 11 -37 25 -13 14 -31 25 -40
25 -9 0 -25 9 -35 20 -10 11 -23 20 -28 20 -5 0 -41 16 -78 35 -38 19 -75 35
-83 35 -8 0 -34 11 -57 25 -24 14 -56 25 -70 25 -15 0 -32 6 -38 13 -6 8 -30
19 -53 27 -24 7 -56 18 -73 25 -52 22 -100 35 -131 35 -17 0 -35 5 -42 12 -10
10 -44 18 -147 34 -22 4 -46 12 -54 18 -15 12 -100 25 -213 32 l-76 5 -7 47
c-3 26 -8 77 -11 114 -3 40 -11 72 -20 79 -10 8 -14 34 -14 90 0 43 -4 81 -10
84 -5 3 -10 37 -10 74 0 40 -5 72 -12 79 -12 12 -22 76 -34 222 -3 35 -12 73
-20 84 -8 12 -14 45 -14 83 0 34 -4 65 -10 68 -5 3 -10 39 -10 79 0 53 -4 77
-15 86 -11 9 -15 32 -15 81 0 37 -4 71 -10 74 -5 3 -10 34 -10 69 0 39 -5 69
-15 82 -10 13 -14 44 -15 96 0 42 -4 80 -10 83 -5 3 -10 34 -10 68 -1 39 -6
69 -15 81 -10 13 -15 44 -15 92 0 40 -4 76 -10 79 -5 3 -10 41 -10 84 0 56 -4
82 -14 90 -14 12 -19 46 -32 236 -3 45 -11 87 -19 95 -7 8 -16 49 -19 90 -10
147 -21 227 -33 241 -6 8 -14 48 -17 89 -13 178 -22 248 -33 261 -11 13 -17
70 -28 259 -7 111 -17 130 -67 130 l-38 0 0 -79z m306 -4676 c18 -9 57 -15
106 -15 42 0 80 -4 83 -10 3 -5 30 -10 59 -10 35 0 58 -5 66 -15 7 -9 29 -15
51 -15 21 0 41 -4 44 -10 3 -5 17 -10 30 -10 13 0 36 -6 52 -14 30 -15 142
-54 182 -63 14 -3 76 -32 140 -64 63 -33 120 -59 126 -59 6 0 22 -11 35 -25
13 -14 29 -25 35 -25 7 0 24 -11 39 -25 15 -14 33 -25 40 -25 6 0 28 -16 47
-36 18 -20 41 -39 51 -43 25 -10 298 -279 298 -294 0 -7 14 -26 31 -43 17 -16
37 -42 45 -59 8 -16 24 -44 37 -62 61 -89 167 -285 167 -311 0 -7 9 -31 19
-53 11 -22 23 -53 26 -69 4 -17 11 -32 16 -35 5 -4 9 -19 9 -35 0 -16 5 -32
10 -35 6 -3 10 -16 10 -29 0 -12 7 -31 15 -42 8 -10 15 -35 15 -55 0 -19 5
-40 12 -47 7 -7 11 -30 10 -52 -2 -22 4 -53 13 -69 9 -19 15 -57 15 -100 0
-38 5 -73 10 -76 6 -4 10 -117 10 -305 0 -188 -4 -301 -10 -305 -5 -3 -10 -39
-10 -79 0 -46 -6 -85 -15 -102 -8 -16 -15 -50 -15 -76 0 -26 -4 -50 -10 -53
-5 -3 -10 -27 -10 -53 0 -26 -7 -56 -15 -66 -8 -11 -15 -30 -15 -42 0 -13 -4
-26 -10 -29 -5 -3 -10 -17 -10 -29 0 -13 -7 -37 -15 -52 -8 -16 -15 -36 -15
-45 0 -8 -4 -19 -9 -25 -5 -5 -14 -27 -21 -49 -17 -56 -158 -338 -176 -351 -8
-6 -14 -15 -14 -20 0 -14 -71 -118 -87 -127 -7 -4 -13 -15 -13 -23 0 -8 -25
-41 -55 -74 -30 -33 -55 -64 -55 -70 0 -15 -226 -237 -258 -254 -15 -8 -47
-35 -72 -60 -24 -25 -49 -46 -56 -46 -6 0 -24 -11 -40 -25 -16 -14 -34 -25
-40 -25 -6 0 -19 -9 -29 -20 -19 -21 -130 -80 -151 -80 -6 0 -14 -7 -17 -15
-6 -15 -81 -55 -104 -55 -8 0 -36 -11 -63 -25 -27 -14 -56 -25 -64 -25 -18 0
-94 -38 -102 -51 -3 -5 -23 -9 -44 -9 -21 0 -42 -4 -45 -10 -3 -5 -21 -10 -39
-10 -19 0 -39 -7 -46 -15 -7 -9 -29 -15 -51 -15 -21 0 -41 -4 -44 -10 -3 -5
-35 -10 -70 -10 -43 0 -68 -5 -79 -15 -11 -11 -38 -15 -103 -15 -49 0 -94 -5
-99 -10 -7 -7 -260 -9 -740 -8 l-729 3 -8 1420 c-9 1792 -9 2249 0 2815 l8
455 72 5 c40 3 78 11 85 18 9 9 177 12 769 12 652 0 761 -2 785 -15z"/>
<path d="M3788 15116 c-11 -10 -47 -16 -119 -20 -173 -9 -243 -17 -259 -31 -8
-7 -33 -15 -55 -18 -71 -10 -142 -25 -161 -35 -11 -6 -39 -16 -64 -22 -25 -7
-58 -18 -75 -25 -16 -7 -50 -19 -75 -25 -58 -15 -366 -168 -398 -197 -14 -13
-29 -23 -35 -23 -5 0 -22 -11 -39 -25 -16 -14 -35 -25 -41 -25 -7 0 -28 -16
-47 -35 -19 -19 -38 -35 -44 -35 -13 0 -386 -371 -386 -385 0 -5 -16 -27 -35
-48 -19 -21 -35 -42 -35 -47 0 -5 -11 -21 -24 -37 -13 -16 -35 -50 -48 -75
-12 -26 -49 -98 -81 -161 -31 -62 -57 -123 -57 -135 0 -11 -4 -24 -10 -27 -5
-3 -10 -19 -10 -34 0 -16 -7 -34 -15 -41 -8 -7 -15 -23 -15 -35 0 -13 -7 -36
-15 -51 -8 -16 -12 -37 -9 -47 3 -10 -1 -29 -10 -42 -10 -15 -16 -46 -16 -84
0 -33 -4 -63 -10 -66 -14 -8 -14 -522 0 -530 5 -3 10 -34 10 -68 0 -41 6 -70
16 -85 9 -13 13 -29 10 -37 -5 -14 17 -94 35 -125 22 -38 39 -85 39 -106 0
-12 4 -26 10 -29 5 -3 21 -30 34 -59 14 -29 32 -56 40 -59 9 -4 16 -15 16 -25
0 -11 7 -25 15 -32 8 -7 15 -17 15 -22 0 -6 11 -23 25 -40 14 -16 25 -35 25
-42 0 -6 27 -38 60 -71 33 -33 60 -65 60 -73 0 -19 109 -131 145 -149 17 -9
60 -44 97 -79 36 -35 72 -64 78 -64 7 0 30 -15 51 -32 68 -59 102 -83 147
-104 24 -12 53 -31 65 -41 12 -11 38 -26 57 -33 19 -7 42 -19 50 -25 8 -6 31
-18 50 -25 19 -8 47 -23 61 -35 14 -12 75 -45 135 -74 60 -29 116 -57 124 -62
8 -5 31 -16 50 -25 19 -8 42 -20 50 -24 8 -5 56 -30 105 -55 50 -25 97 -50
105 -55 8 -4 96 -47 195 -95 99 -48 187 -91 195 -96 8 -4 160 -81 337 -170
177 -89 330 -170 339 -180 9 -11 22 -19 29 -19 31 0 85 -41 181 -138 104 -107
164 -196 164 -247 0 -13 7 -28 15 -35 9 -7 15 -29 15 -51 0 -21 5 -41 10 -44
6 -4 10 -58 10 -130 0 -72 -4 -126 -10 -130 -5 -3 -10 -26 -10 -50 0 -24 -4
-45 -8 -47 -5 -1 -25 -37 -45 -78 -19 -42 -45 -84 -56 -94 -12 -11 -21 -25
-21 -33 0 -18 -95 -113 -112 -113 -8 0 -32 -18 -53 -40 -21 -22 -43 -40 -48
-40 -5 0 -41 -15 -80 -34 -76 -35 -125 -54 -167 -62 -14 -3 -29 -9 -34 -15 -6
-5 -33 -9 -62 -9 -34 0 -56 -5 -64 -15 -19 -22 -1675 -22 -1704 0 -16 12 -60
15 -228 15 l-208 0 -27 -41 c-16 -23 -36 -57 -46 -75 -9 -19 -21 -34 -26 -34
-5 0 -13 -10 -17 -22 -3 -13 -24 -42 -45 -65 -22 -24 -39 -49 -39 -56 0 -7
-11 -24 -25 -37 -14 -13 -25 -29 -25 -35 0 -6 -11 -22 -25 -35 -14 -13 -25
-29 -25 -36 0 -7 -11 -26 -25 -42 -14 -17 -25 -34 -25 -39 0 -5 -16 -24 -35
-43 -19 -19 -35 -40 -35 -48 0 -14 -22 -44 -91 -125 -20 -23 -39 -52 -43 -63
-4 -12 -15 -29 -26 -39 -11 -10 -20 -23 -20 -30 0 -6 -16 -26 -35 -45 -19 -19
-35 -39 -35 -46 0 -7 -11 -26 -25 -42 -14 -17 -25 -32 -25 -35 0 -9 -80 -125
-95 -137 -10 -8 -15 -30 -15 -61 l0 -49 363 1 c219 0 384 5 417 11 37 8 464
14 1290 18 679 4 1270 11 1312 16 42 5 83 15 90 21 6 7 28 13 48 13 20 0 45 7
56 15 10 8 32 15 47 15 16 0 52 11 80 24 29 13 72 29 97 36 54 15 218 94 269
129 20 13 58 36 86 49 27 13 56 33 63 43 7 11 28 26 45 35 18 9 51 34 74 55
24 22 47 39 53 39 13 0 220 212 220 225 0 6 23 33 50 60 28 27 50 54 50 60 0
6 15 27 33 47 17 19 43 57 56 84 13 27 32 58 41 69 25 28 100 176 100 197 0 9
11 38 25 64 14 26 25 57 25 70 0 13 4 26 10 29 6 3 10 14 10 23 0 9 7 30 15
46 8 15 15 39 15 52 0 12 4 26 10 29 5 3 10 21 10 39 0 18 7 41 15 52 8 11 15
41 15 69 0 28 5 56 12 63 16 16 29 151 34 361 3 114 1 178 -6 185 -5 5 -10 28
-10 51 0 22 -7 53 -15 69 -8 15 -15 50 -15 76 0 30 -6 52 -15 60 -8 7 -15 25
-15 41 0 15 -4 31 -10 34 -5 3 -10 16 -10 29 0 13 -11 44 -25 70 -14 26 -25
54 -25 62 0 21 -78 174 -106 207 -13 16 -24 33 -24 39 0 5 -11 23 -25 40 -14
16 -25 35 -25 43 0 7 -7 15 -15 19 -8 3 -21 18 -27 33 -15 34 -69 98 -235 274
-70 75 -137 140 -148 144 -11 4 -43 29 -72 56 -28 27 -57 49 -64 49 -6 0 -31
17 -54 38 -60 52 -116 92 -130 92 -6 0 -22 11 -35 25 -13 14 -28 25 -33 25 -6
0 -18 6 -26 14 -9 7 -47 30 -86 51 -38 20 -92 52 -120 69 -27 18 -66 39 -85
46 -19 7 -40 17 -46 22 -6 4 -40 22 -75 39 -35 17 -72 35 -82 40 -10 6 -78 40
-150 76 -73 35 -139 69 -147 73 -52 30 -441 220 -450 220 -5 0 -10 5 -10 10 0
6 -9 10 -19 10 -11 0 -23 4 -26 10 -3 5 -23 17 -43 26 -20 8 -44 20 -52 24 -8
5 -61 32 -116 60 -56 28 -107 57 -114 65 -7 8 -18 15 -24 15 -6 0 -26 14 -45
30 -18 17 -39 30 -45 30 -7 0 -27 16 -46 35 -19 19 -39 35 -45 35 -14 0 -75
62 -75 76 0 6 -16 25 -35 44 -19 19 -35 41 -35 50 0 9 -11 27 -24 39 -24 22
-28 36 -46 140 -5 29 -13 58 -19 64 -16 16 -13 73 4 87 9 7 15 29 15 53 0 22
5 57 11 76 24 74 129 278 159 306 16 16 30 34 30 40 0 14 73 85 88 85 6 0 28
18 48 40 21 22 43 40 50 40 7 0 43 16 80 35 37 19 74 35 84 35 9 0 25 7 36 15
11 8 41 15 71 15 28 0 55 5 58 10 4 7 455 10 1321 10 l1316 0 87 83 c49 45 91
91 94 102 8 24 865 883 900 902 45 23 42 74 -4 88 -27 9 -168 -4 -192 -17 -12
-6 -23 -6 -32 2 -14 12 -215 8 -248 -5 -9 -4 -23 -3 -30 3 -6 6 -23 11 -37 12
-14 1 -728 4 -1586 6 -1369 4 -1563 3 -1576 -10z"/>
<path d="M14484 15115 c-16 -12 -154 -14 -1007 -15 -662 0 -995 -3 -1008 -10
-10 -6 -19 -16 -19 -23 0 -7 63 -75 140 -152 77 -77 140 -144 140 -149 0 -5
23 -33 50 -62 28 -29 50 -59 50 -66 0 -8 16 -29 35 -48 19 -19 35 -40 35 -47
0 -7 11 -23 25 -35 14 -12 25 -27 25 -34 0 -7 11 -26 25 -42 14 -17 25 -34 25
-39 0 -6 9 -18 21 -29 12 -10 30 -39 42 -64 11 -25 26 -52 33 -61 25 -29 154
-294 154 -315 0 -12 6 -27 13 -33 8 -6 19 -30 26 -53 7 -24 23 -65 35 -93 35
-76 48 -116 53 -158 3 -20 9 -40 14 -43 5 -3 9 -18 9 -33 0 -15 7 -36 15 -47
8 -10 15 -38 15 -62 0 -24 5 -53 12 -65 6 -12 11 -42 10 -67 -1 -25 5 -58 13
-74 11 -21 15 -61 15 -150 0 -67 4 -126 10 -132 14 -14 14 -1138 0 -1163 -5
-11 -10 -80 -10 -153 0 -93 -4 -138 -12 -146 -11 -11 -17 -60 -34 -292 -3 -41
-12 -83 -20 -94 -8 -12 -14 -45 -14 -78 0 -31 -4 -60 -10 -63 -5 -3 -10 -30
-10 -58 0 -30 -7 -60 -15 -71 -9 -12 -15 -42 -15 -72 0 -29 -4 -56 -10 -59 -5
-3 -10 -20 -10 -36 0 -17 -5 -40 -12 -52 -12 -22 -24 -77 -35 -152 -3 -22 -12
-49 -19 -60 -8 -11 -14 -29 -14 -42 0 -12 -4 -25 -10 -28 -5 -3 -10 -18 -10
-33 0 -15 -7 -36 -15 -46 -8 -11 -15 -30 -15 -42 0 -13 -4 -26 -10 -29 -5 -3
-10 -18 -10 -33 0 -15 -7 -36 -15 -46 -8 -11 -15 -28 -15 -38 0 -18 -3 -26
-34 -85 -9 -17 -16 -38 -16 -45 0 -8 -11 -37 -25 -64 -14 -27 -25 -54 -25 -60
0 -15 -208 -428 -243 -481 -15 -24 -27 -49 -27 -57 0 -7 -7 -19 -15 -26 -9 -7
-31 -41 -51 -76 -19 -34 -41 -68 -49 -74 -8 -7 -15 -18 -15 -24 0 -7 -11 -23
-25 -36 -14 -13 -25 -29 -25 -35 0 -6 -16 -28 -35 -48 -19 -20 -35 -43 -35
-50 0 -8 -12 -24 -26 -38 -14 -13 -41 -48 -60 -76 -19 -29 -38 -53 -43 -53 -5
0 -13 -10 -17 -22 -4 -13 -35 -52 -69 -88 -35 -36 -65 -74 -69 -85 -3 -11 -53
-67 -111 -124 -58 -58 -105 -109 -105 -115 0 -5 -195 -206 -434 -446 -238
-239 -441 -448 -449 -465 -9 -16 -47 -61 -86 -100 -39 -38 -71 -74 -71 -80 0
-6 -20 -31 -45 -55 -25 -24 -45 -50 -45 -57 0 -7 -25 -40 -55 -73 -30 -33 -55
-66 -55 -74 0 -7 -12 -21 -26 -31 -14 -9 -32 -31 -39 -48 -7 -18 -23 -41 -34
-51 -12 -11 -21 -24 -21 -29 0 -5 -17 -29 -37 -52 -21 -23 -46 -55 -55 -71
-27 -46 -41 -67 -65 -97 -13 -16 -23 -34 -23 -41 0 -7 -9 -21 -19 -30 -11 -10
-28 -39 -40 -65 -11 -26 -27 -54 -36 -61 -9 -7 -27 -37 -41 -66 -13 -28 -31
-58 -39 -64 -9 -7 -22 -29 -31 -49 -9 -20 -20 -43 -25 -51 -4 -8 -16 -31 -25
-50 -8 -19 -19 -42 -24 -50 -40 -72 -120 -241 -120 -252 0 -18 -28 -76 -41
-83 -5 -4 -9 -21 -9 -40 0 -19 -4 -37 -10 -40 -5 -3 -10 -14 -10 -23 0 -9 -11
-39 -25 -67 -13 -27 -25 -62 -25 -77 0 -14 -6 -39 -14 -55 -21 -43 -36 -96
-36 -130 0 -17 -7 -36 -15 -43 -10 -8 -15 -31 -15 -66 0 -29 -4 -56 -10 -59
-5 -3 -10 -23 -10 -43 0 -21 -7 -48 -16 -60 -9 -13 -14 -37 -12 -60 3 -33 6
-37 32 -37 28 0 55 33 86 103 36 82 85 173 101 188 10 9 19 23 19 29 0 7 7 18
15 25 8 7 15 20 15 29 0 10 11 28 25 41 14 13 25 29 25 35 0 7 10 23 23 37 20
24 42 57 76 117 7 13 25 37 39 52 14 16 30 37 36 47 35 60 132 183 214 271 34
37 62 74 62 82 0 18 621 639 638 639 7 0 47 30 87 68 181 163 215 192 227 192
7 0 24 12 37 25 13 14 60 50 105 79 45 30 88 61 95 70 7 9 19 16 25 16 7 0 23
11 36 25 13 14 30 25 38 25 8 0 30 13 49 30 18 16 40 30 47 30 8 0 16 7 20 15
3 8 17 20 32 25 26 10 54 29 118 82 19 16 38 28 43 28 18 0 69 29 88 50 10 11
22 20 27 20 17 0 123 53 143 71 26 23 532 279 552 279 8 0 27 6 41 14 36 18
66 30 132 50 30 10 64 21 75 25 48 19 93 31 116 31 14 0 34 7 45 15 10 8 35
15 55 15 41 0 109 50 109 81 0 10 4 20 9 23 12 8 51 83 51 99 0 7 8 31 19 53
31 66 48 107 61 152 7 23 19 47 27 53 7 6 13 22 13 34 0 24 29 87 43 93 4 2 7
19 7 37 0 19 5 37 10 40 6 3 10 17 10 29 0 13 7 29 15 36 8 7 15 21 15 31 0
10 5 21 10 24 6 3 10 19 10 35 0 16 4 32 10 35 12 7 50 92 50 112 0 7 7 25 16
38 9 14 14 25 10 25 -6 0 18 70 39 110 7 14 18 43 24 65 7 22 19 54 26 70 7
17 19 50 25 75 7 25 16 54 20 65 4 11 13 36 20 55 7 19 14 51 17 70 2 19 8 44
12 55 21 51 31 94 31 129 0 23 5 39 15 42 9 4 15 19 15 37 0 34 15 87 36 130
8 16 14 50 14 75 0 26 7 56 15 66 8 11 15 37 15 57 0 21 5 39 12 41 7 3 15 31
19 64 16 124 22 154 35 165 9 7 14 32 14 65 0 29 5 56 10 59 6 3 10 30 10 58
0 30 7 60 15 71 8 11 15 36 15 55 0 20 7 44 15 55 14 19 35 14 35 -9 0 -7 11
-27 25 -43 14 -17 25 -34 25 -39 0 -5 11 -20 25 -33 14 -13 25 -29 25 -35 0
-7 14 -26 30 -43 17 -18 30 -38 30 -45 0 -8 11 -24 25 -37 14 -13 25 -30 25
-37 0 -8 16 -37 35 -66 19 -28 35 -57 35 -63 0 -6 11 -21 25 -34 14 -13 25
-28 25 -33 0 -5 10 -22 23 -37 12 -15 30 -40 39 -56 29 -48 42 -67 66 -97 12
-16 22 -34 22 -41 0 -7 11 -23 25 -36 14 -13 25 -29 25 -35 0 -7 9 -20 20 -30
11 -10 31 -41 44 -69 14 -28 34 -60 45 -70 12 -11 21 -26 21 -33 0 -8 9 -27
21 -41 63 -83 79 -106 79 -117 0 -6 11 -22 25 -35 14 -13 25 -28 25 -33 0 -5
11 -22 25 -39 14 -16 25 -35 25 -42 0 -7 11 -23 25 -36 14 -13 25 -29 25 -35
0 -6 11 -22 25 -35 14 -13 25 -31 26 -39 0 -9 8 -27 17 -41 9 -14 26 -41 37
-59 11 -18 30 -46 43 -61 12 -15 22 -31 22 -35 0 -4 11 -20 25 -37 14 -16 25
-35 25 -42 0 -7 11 -23 25 -36 14 -13 25 -29 25 -35 0 -6 11 -22 25 -35 14
-13 25 -31 25 -40 0 -9 11 -27 25 -40 14 -13 25 -29 25 -35 0 -6 11 -22 25
-35 14 -13 25 -29 25 -36 0 -7 11 -26 25 -42 14 -17 25 -34 25 -39 0 -5 11
-20 25 -33 14 -13 25 -29 25 -36 0 -7 11 -26 25 -42 14 -17 25 -33 25 -37 0
-4 11 -20 25 -37 14 -16 25 -35 25 -42 0 -7 11 -23 25 -36 14 -13 25 -28 25
-34 0 -6 10 -22 23 -36 12 -14 28 -36 35 -50 6 -14 28 -45 47 -70 19 -25 42
-59 49 -75 8 -17 24 -39 35 -49 12 -11 21 -24 21 -29 0 -5 16 -29 35 -53 19
-23 35 -45 35 -49 0 -4 11 -20 25 -37 14 -16 25 -35 25 -42 0 -7 11 -22 25
-34 14 -12 25 -27 25 -33 0 -7 18 -31 40 -55 22 -24 40 -48 40 -53 0 -6 11
-22 25 -37 14 -15 25 -32 25 -38 0 -7 16 -27 35 -46 19 -19 35 -40 35 -47 0
-20 79 -96 120 -117 19 -10 56 -19 81 -21 25 -1 55 -7 67 -14 11 -6 36 -11 54
-11 19 0 39 -5 46 -12 7 -7 38 -16 69 -20 32 -5 76 -11 98 -15 22 -3 49 -12
60 -19 11 -8 29 -14 42 -14 12 0 25 -4 28 -10 3 -5 19 -10 34 -10 16 0 34 -6
40 -14 6 -8 26 -16 44 -19 61 -10 92 -20 107 -32 8 -7 33 -18 55 -25 71 -22
360 -163 391 -191 11 -10 25 -19 31 -19 6 0 16 -7 23 -15 7 -8 20 -15 30 -15
9 0 25 -9 36 -21 10 -11 39 -30 64 -41 25 -11 53 -27 63 -36 9 -8 25 -20 35
-26 10 -6 33 -20 51 -31 19 -11 46 -30 61 -42 15 -13 32 -23 37 -23 5 0 20
-11 33 -25 13 -14 31 -25 40 -25 9 0 34 -18 55 -40 21 -22 44 -40 50 -40 6 0
37 -27 70 -60 33 -33 66 -60 75 -60 9 0 38 -23 65 -50 27 -28 55 -50 62 -50
19 0 17 84 -2 100 -8 7 -15 18 -15 25 0 7 -11 24 -25 39 -14 15 -25 32 -25 38
0 6 -18 30 -40 54 -22 24 -40 50 -40 57 0 7 -11 24 -25 37 -14 13 -25 29 -25
36 0 6 -7 18 -17 25 -9 8 -22 28 -30 44 -7 17 -29 50 -48 75 -19 25 -41 56
-47 70 -7 14 -23 35 -35 48 -13 13 -23 28 -23 34 0 5 -11 23 -25 40 -14 16
-25 35 -25 42 0 7 -11 23 -25 36 -14 13 -25 28 -25 33 0 5 -11 22 -25 39 -14
16 -25 35 -25 42 0 7 -11 23 -25 36 -14 13 -25 28 -25 33 0 5 -11 22 -25 39
-14 16 -25 35 -25 42 0 7 -9 21 -21 32 -11 10 -31 41 -45 69 -13 27 -40 70
-59 95 -19 25 -41 59 -48 75 -8 17 -21 36 -30 44 -10 7 -17 20 -17 27 0 8 -11
24 -25 36 -14 12 -25 29 -25 38 0 9 -9 25 -19 34 -11 10 -32 42 -47 72 -15 29
-35 61 -46 70 -10 10 -18 21 -18 27 0 5 -11 22 -25 39 -14 16 -25 35 -25 42 0
7 -11 23 -25 36 -14 13 -25 29 -25 36 0 6 -7 18 -17 25 -9 8 -22 28 -30 44 -7
17 -22 44 -33 60 -11 17 -28 46 -39 66 -11 19 -27 41 -35 48 -9 8 -16 20 -16
27 0 8 -11 24 -25 36 -14 12 -25 27 -25 33 0 7 -13 29 -30 50 -16 21 -30 44
-30 51 0 8 -4 14 -10 14 -5 0 -18 17 -29 37 -10 21 -28 47 -40 57 -12 11 -21
27 -21 36 0 10 -7 21 -15 24 -9 3 -22 21 -30 39 -8 19 -21 39 -29 47 -9 7 -16
19 -16 26 0 8 -11 24 -25 36 -14 12 -25 27 -25 33 0 7 -12 28 -27 48 -25 31
-37 49 -79 120 -7 10 -26 33 -43 51 -17 17 -31 35 -31 40 0 4 -11 22 -25 40
-14 18 -25 37 -25 43 0 5 -11 20 -25 33 -14 13 -25 29 -25 35 0 7 -11 24 -25
39 -14 15 -25 33 -25 40 0 7 -11 23 -25 36 -14 13 -25 29 -25 36 0 7 -11 26
-25 42 -14 17 -25 34 -25 39 0 5 -11 20 -25 33 -14 13 -25 29 -25 35 0 7 -11
25 -25 41 -14 16 -25 34 -25 40 0 6 -9 19 -21 30 -11 10 -27 32 -35 49 -7 16
-30 50 -49 75 -19 25 -42 59 -50 75 -9 17 -31 50 -50 75 -19 25 -41 59 -48 75
-8 17 -21 36 -30 44 -10 7 -17 19 -17 26 0 6 -18 37 -40 69 -22 31 -40 59 -40
63 0 3 -11 18 -25 35 -14 16 -25 35 -25 42 0 7 -11 23 -25 36 -14 13 -25 28
-25 33 0 5 -11 22 -25 39 -14 16 -25 35 -25 42 0 7 -11 23 -25 36 -14 13 -25
29 -25 35 0 7 -9 20 -20 30 -11 10 -22 27 -26 38 -4 12 -22 42 -40 69 -19 26
-34 52 -34 57 0 4 -13 25 -30 46 -16 21 -30 43 -30 48 0 6 -11 20 -24 32 -13
11 -26 31 -30 45 -7 32 16 48 76 56 24 2 47 9 52 14 6 6 22 10 37 10 15 0 32
6 38 13 6 8 30 20 53 27 66 20 163 68 183 90 10 11 26 20 35 20 10 0 23 7 30
15 7 8 18 15 24 15 7 0 23 11 36 25 13 14 30 25 37 25 8 0 48 34 90 75 42 41
81 75 87 75 14 0 156 141 156 155 0 6 14 24 31 41 17 16 45 52 64 79 18 28 45
61 59 74 14 14 26 31 26 39 0 8 11 23 25 34 14 11 25 26 25 33 0 8 10 31 21
52 12 21 35 65 51 98 16 33 34 69 40 80 35 62 68 136 68 154 0 11 5 23 10 26
6 3 10 19 10 34 0 15 5 32 12 39 13 13 27 81 35 162 2 30 9 59 14 64 5 6 9 42
9 80 1 43 6 81 15 96 19 34 21 330 3 348 -7 7 -16 54 -20 105 -11 143 -39 302
-56 319 -7 7 -12 24 -12 39 0 15 -4 31 -10 34 -5 3 -10 15 -10 25 0 10 -11 41
-25 68 -14 28 -25 57 -25 66 0 20 -86 185 -111 212 -10 11 -19 28 -19 37 0 10
-7 20 -15 23 -8 4 -15 14 -15 23 0 9 -16 32 -35 51 -19 19 -35 40 -35 47 0 7
-18 33 -40 57 -22 24 -40 47 -40 52 0 11 -353 358 -422 415 -23 20 -53 39 -64
43 -12 4 -29 15 -39 26 -10 11 -24 20 -30 20 -7 0 -23 11 -36 23 -13 13 -45
32 -71 42 -26 9 -49 23 -52 30 -5 14 -238 135 -260 135 -7 0 -34 11 -60 25
-26 14 -57 25 -69 25 -12 0 -31 7 -41 15 -11 8 -30 15 -42 15 -13 0 -26 5 -29
10 -3 6 -19 10 -34 10 -15 0 -32 5 -39 12 -10 10 -44 18 -147 34 -22 4 -46 12
-54 18 -18 14 -121 26 -275 32 -85 4 -123 9 -133 20 -21 21 -420 21 -449 -1z
m240 -1251 c11 -8 42 -14 68 -14 26 0 50 -4 53 -10 3 -5 27 -10 53 -10 26 -1
58 -7 72 -15 14 -8 38 -14 53 -15 16 0 37 -5 49 -11 11 -6 32 -13 46 -15 15
-3 31 -9 36 -15 6 -5 19 -9 30 -9 12 0 41 -11 65 -25 23 -14 52 -25 62 -25 17
0 34 -7 79 -31 8 -5 38 -20 67 -33 28 -14 54 -30 58 -35 3 -6 28 -21 55 -34
27 -13 67 -39 90 -58 83 -69 180 -163 180 -174 0 -6 11 -22 26 -35 29 -28 94
-146 94 -171 0 -10 6 -30 14 -46 8 -15 19 -44 25 -64 14 -45 15 -355 1 -364
-5 -3 -10 -16 -10 -28 0 -29 -103 -238 -129 -261 -12 -11 -21 -27 -21 -36 0
-20 -132 -150 -153 -150 -8 0 -20 -7 -27 -15 -6 -8 -64 -41 -129 -73 -64 -33
-128 -65 -141 -72 -49 -26 -60 -30 -78 -30 -10 0 -27 -7 -38 -15 -10 -8 -36
-15 -56 -15 -20 0 -40 -4 -43 -10 -3 -5 -23 -10 -44 -10 -20 0 -46 -7 -57 -15
-11 -8 -42 -14 -75 -15 -31 0 -68 -6 -81 -12 -17 -10 -80 -12 -231 -10 l-207
3 0 997 0 997 112 -3 c75 -3 119 -9 132 -18z"/>
</g>
</svg>